<?xml version="1.0" encoding="UTF-8" standalone="no"?><svg xmlns="http://www.w3.org/2000/svg" xmlns:xlink="http://www.w3.org/1999/xlink" contentScriptType="application/ecmascript" contentStyleType="text/css" height="177px" preserveAspectRatio="none" style="width:99px;height:177px;" version="1.1" viewBox="0 0 99 177" width="99px" zoomAndPan="magnify"><defs><filter height="300%" id="fo29f0l2nb1kk" width="300%" x="-1" y="-1"><feGaussianBlur result="blurOut" stdDeviation="2.0"/><feColorMatrix in="blurOut" result="blurOut2" type="matrix" values="0 0 0 0 0 0 0 0 0 0 0 0 0 0 0 0 0 0 .4 0"/><feOffset dx="4.0" dy="4.0" in="blurOut2" result="blurOut3"/><feBlend in="SourceGraphic" in2="blurOut3" mode="normal"/></filter></defs><g><!--MD5=[fb99dcfe50c26a39575ddb20aa73d83a]
class Frutero--><rect fill="#FEFECE" filter="url(#fo29f0l2nb1kk)" height="48" id="Frutero" style="stroke:#A80036;stroke-width:1.5;" width="78" x="7" y="7"/><ellipse cx="22" cy="23" fill="#ADD1B2" rx="11" ry="11" style="stroke:#A80036;stroke-width:1.0;"/><path d="M22.2031,29.1719 C23.25,29.1719 24.2656,28.9844 25.25,28.5938 L24.8594,26.5781 C24.0781,26.9063 23.3125,27.0781 22.4844,27.0781 C20.0938,27.0781 18.875,25.7188 18.875,23 C18.875,20.5469 20.125,19.1406 22.0313,19.1406 C22.9219,19.1406 23.7344,19.5 24.2188,20.1094 L25.4531,18.5 C24.8281,17.5625 23.5781,17.0469 22.0156,17.0469 C18.5469,17.0469 16.5781,19.25 16.5781,23.0938 C16.5781,27.1406 18.4688,29.1719 22.2031,29.1719 Z " fill="#000000"/><text fill="#000000" font-family="sans-serif" font-size="12" lengthAdjust="spacing" textLength="46" x="36" y="27.1543">Frutero</text><line style="stroke:#A80036;stroke-width:1.5;" x1="8" x2="84" y1="39" y2="39"/><line style="stroke:#A80036;stroke-width:1.5;" x1="8" x2="84" y1="47" y2="47"/><!--MD5=[1cb3dca014c9afc5465c20d03b3a6575]
class Fruta--><rect fill="#FEFECE" filter="url(#fo29f0l2nb1kk)" height="48" id="Fruta" style="stroke:#A80036;stroke-width:1.5;" width="65" x="13.5" y="115"/><ellipse cx="28.5" cy="131" fill="#ADD1B2" rx="11" ry="11" style="stroke:#A80036;stroke-width:1.0;"/><path d="M28.7031,137.1719 C29.75,137.1719 30.7656,136.9844 31.75,136.5938 L31.3594,134.5781 C30.5781,134.9063 29.8125,135.0781 28.9844,135.0781 C26.5938,135.0781 25.375,133.7188 25.375,131 C25.375,128.5469 26.625,127.1406 28.5313,127.1406 C29.4219,127.1406 30.2344,127.5 30.7188,128.1094 L31.9531,126.5 C31.3281,125.5625 30.0781,125.0469 28.5156,125.0469 C25.0469,125.0469 23.0781,127.25 23.0781,131.0938 C23.0781,135.1406 24.9688,137.1719 28.7031,137.1719 Z " fill="#000000"/><text fill="#000000" font-family="sans-serif" font-size="12" lengthAdjust="spacing" textLength="33" x="42.5" y="135.1543">Fruta</text><line style="stroke:#A80036;stroke-width:1.5;" x1="14.5" x2="77.5" y1="147" y2="147"/><line style="stroke:#A80036;stroke-width:1.5;" x1="14.5" x2="77.5" y1="155" y2="155"/><!--MD5=[eeb50bbbdb0983fe943fe24e0b194ac2]
reverse link Frutero to Fruta--><path codeLine="2" d="M46,68.34 C46,83.68 46,101.1 46,114.68 " fill="none" id="Frutero-backto-Fruta" style="stroke:#A80036;stroke-width:1.0;"/><polygon fill="#FFFFFF" points="46,55,42,61,46,67,50,61,46,55" style="stroke:#A80036;stroke-width:1.0;"/><text fill="#000000" font-family="sans-serif" font-size="13" lengthAdjust="spacing" textLength="8" x="36.975" y="75.1558">1</text><text fill="#000000" font-family="sans-serif" font-size="13" lengthAdjust="spacing" textLength="7" x="38.1469" y="104.007">*</text><!--MD5=[ac2d800f6e6e76a52987807c438308f9]
@startuml Agregación

Frutero "1" o- - "*" Fruta

@enduml

PlantUML version 1.2021.00(Sun Jan 10 11:25:05 CET 2021)
(LGPL source distribution)
Java Runtime: OpenJDK Runtime Environment
JVM: OpenJDK 64-Bit Server VM
Default Encoding: UTF-8
Language: es
Country: ES
--></g></svg>