<?xml version="1.0" encoding="UTF-8" standalone="no"?><svg xmlns="http://www.w3.org/2000/svg" xmlns:xlink="http://www.w3.org/1999/xlink" contentScriptType="application/ecmascript" contentStyleType="text/css" height="578px" preserveAspectRatio="none" style="width:401px;height:578px;" version="1.1" viewBox="0 0 401 578" width="401px" zoomAndPan="magnify"><defs><filter height="300%" id="f1jtfks5a84w21" width="300%" x="-1" y="-1"><feGaussianBlur result="blurOut" stdDeviation="2.0"/><feColorMatrix in="blurOut" result="blurOut2" type="matrix" values="0 0 0 0 0 0 0 0 0 0 0 0 0 0 0 0 0 0 .4 0"/><feOffset dx="4.0" dy="4.0" in="blurOut2" result="blurOut3"/><feBlend in="SourceGraphic" in2="blurOut3" mode="normal"/></filter></defs><g><!--MD5=[be996cdb8e6bf2fc7cb89c555f2cd144]
class Entity--><rect codeLine="1" fill="#FEFECE" filter="url(#f1jtfks5a84w21)" height="60.8047" id="Entity" style="stroke:#A80036;stroke-width:1.5;" width="67" x="207.5" y="153"/><ellipse cx="222.5" cy="169" fill="#ADD1B2" rx="11" ry="11" style="stroke:#A80036;stroke-width:1.0;"/><path d="M222.7031,175.1719 C223.75,175.1719 224.7656,174.9844 225.75,174.5938 L225.3594,172.5781 C224.5781,172.9063 223.8125,173.0781 222.9844,173.0781 C220.5938,173.0781 219.375,171.7188 219.375,169 C219.375,166.5469 220.625,165.1406 222.5313,165.1406 C223.4219,165.1406 224.2344,165.5 224.7188,166.1094 L225.9531,164.5 C225.3281,163.5625 224.0781,163.0469 222.5156,163.0469 C219.0469,163.0469 217.0781,165.25 217.0781,169.0938 C217.0781,173.1406 218.9688,175.1719 222.7031,175.1719 Z " fill="#000000"/><text fill="#000000" font-family="sans-serif" font-size="12" lengthAdjust="spacing" textLength="35" x="236.5" y="173.1543">Entity</text><line style="stroke:#A80036;stroke-width:1.5;" x1="208.5" x2="273.5" y1="185" y2="185"/><line style="stroke:#A80036;stroke-width:1.5;" x1="208.5" x2="273.5" y1="193" y2="193"/><ellipse cx="218.5" cy="204" fill="#84BE84" rx="3" ry="3" style="stroke:#038048;stroke-width:1.0;"/><text fill="#000000" font-family="sans-serif" font-size="11" lengthAdjust="spacing" textLength="27" x="227.5" y="207.2104">tick()</text><!--MD5=[4e13963c9dc916a21a8436ef39422b32]
class Component--><rect codeLine="4" fill="#FEFECE" filter="url(#f1jtfks5a84w21)" height="73.6094" id="Component" style="stroke:#A80036;stroke-width:1.5;" width="116" x="117" y="274"/><ellipse cx="137.4" cy="290" fill="#A9DCDF" rx="11" ry="11" style="stroke:#A80036;stroke-width:1.0;"/><path d="M132.6344,295.25 L134.9938,295.25 L135.5719,293.0156 L139.1813,293.0156 L139.7594,295.25 L142.1344,295.25 L138.7281,283.4688 L136.0406,283.4688 L132.6344,295.25 Z M136.1031,290.9844 L137.3063,286.3438 L137.4625,286.3438 L138.6656,290.9844 L136.1031,290.9844 Z " fill="#000000"/><text fill="#000000" font-family="sans-serif" font-size="12" font-style="italic" lengthAdjust="spacing" textLength="72" x="152.6" y="294.1543">Component</text><line style="stroke:#A80036;stroke-width:1.5;" x1="118" x2="232" y1="306" y2="306"/><ellipse cx="128" cy="317" fill="none" rx="3" ry="3" style="stroke:#038048;stroke-width:1.0;"/><text fill="#000000" font-family="sans-serif" font-size="11" lengthAdjust="spacing" textLength="90" x="137" y="320.2104">messageQueue</text><line style="stroke:#A80036;stroke-width:1.5;" x1="118" x2="232" y1="326.8047" y2="326.8047"/><ellipse cx="128" cy="337.8047" fill="#84BE84" rx="3" ry="3" style="stroke:#038048;stroke-width:1.0;"/><text fill="#000000" font-family="sans-serif" font-size="11" lengthAdjust="spacing" textLength="27" x="137" y="341.0151">tick()</text><!--MD5=[b6dcce5e5ef3c84b0b048d11301373dd]
class Game--><rect codeLine="9" fill="#FEFECE" filter="url(#f1jtfks5a84w21)" height="86.4141" id="Game" style="stroke:#A80036;stroke-width:1.5;" width="116" x="270" y="7"/><ellipse cx="306.6" cy="23" fill="#ADD1B2" rx="11" ry="11" style="stroke:#A80036;stroke-width:1.0;"/><path d="M306.8031,29.1719 C307.85,29.1719 308.8656,28.9844 309.85,28.5938 L309.4594,26.5781 C308.6781,26.9063 307.9125,27.0781 307.0844,27.0781 C304.6938,27.0781 303.475,25.7188 303.475,23 C303.475,20.5469 304.725,19.1406 306.6313,19.1406 C307.5219,19.1406 308.3344,19.5 308.8188,20.1094 L310.0531,18.5 C309.4281,17.5625 308.1781,17.0469 306.6156,17.0469 C303.1469,17.0469 301.1781,19.25 301.1781,23.0938 C301.1781,27.1406 303.0688,29.1719 306.8031,29.1719 Z " fill="#000000"/><text fill="#000000" font-family="sans-serif" font-size="12" lengthAdjust="spacing" textLength="36" x="325.4" y="27.1543">Game</text><line style="stroke:#A80036;stroke-width:1.5;" x1="271" x2="385" y1="39" y2="39"/><ellipse cx="281" cy="50" fill="none" rx="3" ry="3" style="stroke:#038048;stroke-width:1.0;"/><text fill="#000000" font-family="sans-serif" font-size="11" lengthAdjust="spacing" textLength="42" x="290" y="53.2104">entities</text><ellipse cx="281" cy="62.8047" fill="none" rx="3" ry="3" style="stroke:#038048;stroke-width:1.0;"/><text fill="#000000" font-family="sans-serif" font-size="11" lengthAdjust="spacing" textLength="90" x="290" y="66.0151">messageQueue</text><line style="stroke:#A80036;stroke-width:1.5;" x1="271" x2="385" y1="72.6094" y2="72.6094"/><ellipse cx="281" cy="83.6094" fill="#84BE84" rx="3" ry="3" style="stroke:#038048;stroke-width:1.0;"/><text fill="#000000" font-family="sans-serif" font-size="11" lengthAdjust="spacing" textLength="27" x="290" y="86.8198">tick()</text><!--MD5=[f50208e08ebeebbee8e1b321793733cf]
class Attacker--><rect fill="#FEFECE" filter="url(#f1jtfks5a84w21)" height="48" id="Attacker" style="stroke:#A80036;stroke-width:1.5;" width="85" x="132.5" y="408"/><ellipse cx="147.5" cy="424" fill="#ADD1B2" rx="11" ry="11" style="stroke:#A80036;stroke-width:1.0;"/><path d="M147.7031,430.1719 C148.75,430.1719 149.7656,429.9844 150.75,429.5938 L150.3594,427.5781 C149.5781,427.9063 148.8125,428.0781 147.9844,428.0781 C145.5938,428.0781 144.375,426.7188 144.375,424 C144.375,421.5469 145.625,420.1406 147.5313,420.1406 C148.4219,420.1406 149.2344,420.5 149.7188,421.1094 L150.9531,419.5 C150.3281,418.5625 149.0781,418.0469 147.5156,418.0469 C144.0469,418.0469 142.0781,420.25 142.0781,424.0938 C142.0781,428.1406 143.9688,430.1719 147.7031,430.1719 Z " fill="#000000"/><text fill="#000000" font-family="sans-serif" font-size="12" lengthAdjust="spacing" textLength="53" x="161.5" y="428.1543">Attacker</text><line style="stroke:#A80036;stroke-width:1.5;" x1="133.5" x2="216.5" y1="440" y2="440"/><line style="stroke:#A80036;stroke-width:1.5;" x1="133.5" x2="216.5" y1="448" y2="448"/><!--MD5=[014e7f206415c8819212b9ce0f4cb659]
class Defender--><rect fill="#FEFECE" filter="url(#f1jtfks5a84w21)" height="48" id="Defender" style="stroke:#A80036;stroke-width:1.5;" width="90" x="7" y="408"/><ellipse cx="22" cy="424" fill="#ADD1B2" rx="11" ry="11" style="stroke:#A80036;stroke-width:1.0;"/><path d="M22.2031,430.1719 C23.25,430.1719 24.2656,429.9844 25.25,429.5938 L24.8594,427.5781 C24.0781,427.9063 23.3125,428.0781 22.4844,428.0781 C20.0938,428.0781 18.875,426.7188 18.875,424 C18.875,421.5469 20.125,420.1406 22.0313,420.1406 C22.9219,420.1406 23.7344,420.5 24.2188,421.1094 L25.4531,419.5 C24.8281,418.5625 23.5781,418.0469 22.0156,418.0469 C18.5469,418.0469 16.5781,420.25 16.5781,424.0938 C16.5781,428.1406 18.4688,430.1719 22.2031,430.1719 Z " fill="#000000"/><text fill="#000000" font-family="sans-serif" font-size="12" lengthAdjust="spacing" textLength="58" x="36" y="428.1543">Defender</text><line style="stroke:#A80036;stroke-width:1.5;" x1="8" x2="96" y1="440" y2="440"/><line style="stroke:#A80036;stroke-width:1.5;" x1="8" x2="96" y1="448" y2="448"/><!--MD5=[bea5b0d46523efab5ea1c1d339f396f0]
class Message--><rect codeLine="20" fill="#FEFECE" filter="url(#f1jtfks5a84w21)" height="48" id="Message" style="stroke:#A80036;stroke-width:1.5;" width="86" x="271" y="287"/><ellipse cx="286" cy="303" fill="#A9DCDF" rx="11" ry="11" style="stroke:#A80036;stroke-width:1.0;"/><path d="M281.2344,308.25 L283.5938,308.25 L284.1719,306.0156 L287.7813,306.0156 L288.3594,308.25 L290.7344,308.25 L287.3281,296.4688 L284.6406,296.4688 L281.2344,308.25 Z M284.7031,303.9844 L285.9063,299.3438 L286.0625,299.3438 L287.2656,303.9844 L284.7031,303.9844 Z " fill="#000000"/><text fill="#000000" font-family="sans-serif" font-size="12" font-style="italic" lengthAdjust="spacing" textLength="54" x="300" y="307.1543">Message</text><line style="stroke:#A80036;stroke-width:1.5;" x1="272" x2="356" y1="319" y2="319"/><line style="stroke:#A80036;stroke-width:1.5;" x1="272" x2="356" y1="327" y2="327"/><!--MD5=[7ac02b56c149fd063c37b1309e8be999]
class Attack--><rect fill="#FEFECE" filter="url(#f1jtfks5a84w21)" height="48" id="Attack" style="stroke:#A80036;stroke-width:1.5;" width="72" x="139" y="516"/><ellipse cx="154" cy="532" fill="#ADD1B2" rx="11" ry="11" style="stroke:#A80036;stroke-width:1.0;"/><path d="M154.2031,538.1719 C155.25,538.1719 156.2656,537.9844 157.25,537.5938 L156.8594,535.5781 C156.0781,535.9063 155.3125,536.0781 154.4844,536.0781 C152.0938,536.0781 150.875,534.7188 150.875,532 C150.875,529.5469 152.125,528.1406 154.0313,528.1406 C154.9219,528.1406 155.7344,528.5 156.2188,529.1094 L157.4531,527.5 C156.8281,526.5625 155.5781,526.0469 154.0156,526.0469 C150.5469,526.0469 148.5781,528.25 148.5781,532.0938 C148.5781,536.1406 150.4688,538.1719 154.2031,538.1719 Z " fill="#000000"/><text fill="#000000" font-family="sans-serif" font-size="12" lengthAdjust="spacing" textLength="40" x="168" y="536.1543">Attack</text><line style="stroke:#A80036;stroke-width:1.5;" x1="140" x2="210" y1="548" y2="548"/><line style="stroke:#A80036;stroke-width:1.5;" x1="140" x2="210" y1="556" y2="556"/><!--MD5=[61e2610165a592fa949543c2d7246366]
class Presence--><rect fill="#FEFECE" filter="url(#f1jtfks5a84w21)" height="48" id="Presence" style="stroke:#A80036;stroke-width:1.5;" width="91" x="296.5" y="516"/><ellipse cx="311.5" cy="532" fill="#ADD1B2" rx="11" ry="11" style="stroke:#A80036;stroke-width:1.0;"/><path d="M311.7031,538.1719 C312.75,538.1719 313.7656,537.9844 314.75,537.5938 L314.3594,535.5781 C313.5781,535.9063 312.8125,536.0781 311.9844,536.0781 C309.5938,536.0781 308.375,534.7188 308.375,532 C308.375,529.5469 309.625,528.1406 311.5313,528.1406 C312.4219,528.1406 313.2344,528.5 313.7188,529.1094 L314.9531,527.5 C314.3281,526.5625 313.0781,526.0469 311.5156,526.0469 C308.0469,526.0469 306.0781,528.25 306.0781,532.0938 C306.0781,536.1406 307.9688,538.1719 311.7031,538.1719 Z " fill="#000000"/><text fill="#000000" font-family="sans-serif" font-size="12" lengthAdjust="spacing" textLength="59" x="325.5" y="536.1543">Presence</text><line style="stroke:#A80036;stroke-width:1.5;" x1="297.5" x2="386.5" y1="548" y2="548"/><line style="stroke:#A80036;stroke-width:1.5;" x1="297.5" x2="386.5" y1="556" y2="556"/><!--MD5=[e6d5c8e3401f2061e17ffb2a76b6cebb]
reverse link Component to Attacker--><path codeLine="14" d="M175,368.07 C175,382.12 175,396.43 175,407.85 " fill="none" id="Component-backto-Attacker" style="stroke:#A80036;stroke-width:1.0;"/><polygon fill="none" points="168,368.03,175,348.03,182,368.03,168,368.03" style="stroke:#A80036;stroke-width:1.0;"/><!--MD5=[ddb85de95e279b6c52ac81478509a3a3]
reverse link Component to Defender--><path codeLine="15" d="M123.35,361.97 C106.88,377.9 89.44,394.77 75.93,407.85 " fill="none" id="Component-backto-Defender" style="stroke:#A80036;stroke-width:1.0;"/><polygon fill="none" points="118.52,356.9,137.76,348.03,128.26,366.96,118.52,356.9" style="stroke:#A80036;stroke-width:1.0;"/><!--MD5=[d272cc19827c3d03f1dadd7c2ae00fd8]
reverse link Game to Message--><path codeLine="16" d="M325,106.45 C321.97,162.52 317.43,246.48 315.25,286.78 " fill="none" id="Game-backto-Message" style="stroke:#A80036;stroke-width:1.0;"/><polygon fill="#FFFFFF" points="325.72,93.19,321.3965,98.9613,325.0609,105.1719,329.3844,99.4006,325.72,93.19" style="stroke:#A80036;stroke-width:1.0;"/><!--MD5=[4a6c06fa1196cbaec981deab102eaf27]
link Entity to Message--><path codeLine="17" d="M258.3,214.24 C270.29,234.86 286.16,262.13 297.88,282.29 " fill="none" id="Entity-to-Message" style="stroke:#A80036;stroke-width:1.0;"/><polygon fill="#A80036" points="300.47,286.74,299.4084,276.9485,297.9586,282.4165,292.4907,280.9667,300.47,286.74" style="stroke:#A80036;stroke-width:1.0;"/><!--MD5=[02aabbcdf2913bdf78d2840a740aa5c1]
reverse link Entity to Component--><path codeLine="18" d="M219.12,226.11 C211.01,241.52 201.9,258.86 194.06,273.76 " fill="none" id="Entity-backto-Component" style="stroke:#A80036;stroke-width:1.0;"/><polygon fill="#A80036" points="225.36,214.24,219.0266,217.6878,219.7732,224.8602,226.1067,221.4123,225.36,214.24" style="stroke:#A80036;stroke-width:1.0;"/><text fill="#000000" font-family="sans-serif" font-size="13" lengthAdjust="spacing" textLength="8" x="213.4934" y="233.8677">1</text><text fill="#000000" font-family="sans-serif" font-size="13" lengthAdjust="spacing" textLength="7" x="189.8316" y="262.9042">*</text><!--MD5=[2b0b617a678a2c83a9e5887370cc3260]
reverse link Game to Entity--><path codeLine="19" d="M292.6,104.5 C281.71,120.96 270.12,138.48 260.69,152.74 " fill="none" id="Game-backto-Entity" style="stroke:#A80036;stroke-width:1.0;"/><polygon fill="#A80036" points="299.99,93.33,293.3438,96.1278,293.3702,103.3389,300.0164,100.5411,299.99,93.33" style="stroke:#A80036;stroke-width:1.0;"/><text fill="#000000" font-family="sans-serif" font-size="13" lengthAdjust="spacing" textLength="8" x="286.8884" y="113.4755">1</text><text fill="#000000" font-family="sans-serif" font-size="13" lengthAdjust="spacing" textLength="7" x="257.0292" y="141.9496">*</text><!--MD5=[ed0fa576020158c2814cb9d4b5222ec1]
reverse link Message to Attack--><path codeLine="22" d="M293.18,353.11 C277.97,382.35 256.34,422.26 235,456 C221.79,476.89 205.24,499.56 192.87,515.93 " fill="none" id="Message-backto-Attack" style="stroke:#A80036;stroke-width:1.0;"/><polygon fill="none" points="287.03,349.78,302.4,335.2,299.48,356.19,287.03,349.78" style="stroke:#A80036;stroke-width:1.0;"/><!--MD5=[c41d396b62b5ad58c1ce3add15307eec]
reverse link Message to Presence--><path codeLine="23" d="M319.32,355.1 C325.21,402.9 334.51,478.24 339.15,515.92 " fill="none" id="Message-backto-Presence" style="stroke:#A80036;stroke-width:1.0;"/><polygon fill="none" points="312.34,355.72,316.84,335.02,326.23,354.01,312.34,355.72" style="stroke:#A80036;stroke-width:1.0;"/><!--MD5=[f1f5d65a7fbaaf98dfbf597752affea6]
link Game to Presence--><path codeLine="25" d="M341.2,93.06 C357.69,150.41 382.85,256.46 375,348 C370,406.32 356.56,473.57 348.46,510.69 " fill="none" id="Game-to-Presence" style="stroke:#A80036;stroke-width:1.0;"/><polygon fill="#A80036" points="347.3,515.94,353.1399,508.0093,348.374,511.0567,345.3266,506.2909,347.3,515.94" style="stroke:#A80036;stroke-width:1.0;"/><!--MD5=[ee7cb17f2eab134f3549aba255e642d4]
link Attacker to Presence--><path codeLine="26" d="M211.24,456 C237.73,472.82 273.7,495.65 301.21,513.11 " fill="none" id="Attacker-to-Presence" style="stroke:#A80036;stroke-width:1.0;"/><polygon fill="#A80036" points="305.55,515.86,300.0776,507.6714,301.3229,513.1895,295.8048,514.4348,305.55,515.86" style="stroke:#A80036;stroke-width:1.0;"/><!--MD5=[ed6f4dfd827fd33e0f5ee6e1d69bc77e]
link Attacker to Attack--><path codeLine="27" d="M175,456 C175,472 175,493.45 175,510.53 " fill="none" id="Attacker-to-Attack" style="stroke:#A80036;stroke-width:1.0;"/><polygon fill="#A80036" points="175,515.68,179,506.68,175,510.68,171,506.68,175,515.68" style="stroke:#A80036;stroke-width:1.0;"/><!--MD5=[9a63cad06178c0c966143eab6a13f347]
link Defender to Attack--><path codeLine="28" d="M78.69,456 C97.9,472.55 123.86,494.93 143.99,512.28 " fill="none" id="Defender-to-Attack" style="stroke:#A80036;stroke-width:1.0;"/><polygon fill="#A80036" points="147.94,515.68,143.7264,506.778,144.1498,512.419,138.5088,512.8423,147.94,515.68" style="stroke:#A80036;stroke-width:1.0;"/><!--MD5=[e0f34543304329672de96d288c076874]
@startuml
class Entity {
    +tick()
}
abstract class Component {
    +messageQueue
    +tick()
}

class Game {
    +entities
    +messageQueue
    +tick()
}
Component <|- - Attacker
Component <|- - Defender
Game o- - Message
Entity - -> Message
Entity "1" *- - "*" Component
Game "1" *- - "*" Entity
abstract class Message {
}
Message <|- - Attack
Message <|- - Presence

Game - -> Presence 
Attacker - -> Presence 
Attacker - -> Attack 
Defender - -> Attack 
@enduml

PlantUML version 1.2021.00(Sun Jan 10 11:25:05 CET 2021)
(LGPL source distribution)
Java Runtime: OpenJDK Runtime Environment
JVM: OpenJDK 64-Bit Server VM
Default Encoding: UTF-8
Language: es
Country: ES
--></g></svg>