<?xml version="1.0" encoding="UTF-8" standalone="no"?><svg xmlns="http://www.w3.org/2000/svg" xmlns:xlink="http://www.w3.org/1999/xlink" contentScriptType="application/ecmascript" contentStyleType="text/css" height="345px" preserveAspectRatio="none" style="width:145px;height:345px;" version="1.1" viewBox="0 0 145 345" width="145px" zoomAndPan="magnify"><defs><filter height="300%" id="f11e0deik3tf66" width="300%" x="-1" y="-1"><feGaussianBlur result="blurOut" stdDeviation="2.0"/><feColorMatrix in="blurOut" result="blurOut2" type="matrix" values="0 0 0 0 0 0 0 0 0 0 0 0 0 0 0 0 0 0 .4 0"/><feOffset dx="4.0" dy="4.0" in="blurOut2" result="blurOut3"/><feBlend in="SourceGraphic" in2="blurOut3" mode="normal"/></filter></defs><g><!--MD5=[80c532e980642ebbe770e7ed91e479d0]
class Enemy--><rect codeLine="1" fill="#FEFECE" filter="url(#f11e0deik3tf66)" height="60.8047" id="Enemy" style="stroke:#A80036;stroke-width:1.5;" width="115" x="11.5" y="7"/><ellipse cx="45.4" cy="23" fill="#ADD1B2" rx="11" ry="11" style="stroke:#A80036;stroke-width:1.0;"/><path d="M45.6031,29.1719 C46.65,29.1719 47.6656,28.9844 48.65,28.5938 L48.2594,26.5781 C47.4781,26.9063 46.7125,27.0781 45.8844,27.0781 C43.4938,27.0781 42.275,25.7188 42.275,23 C42.275,20.5469 43.525,19.1406 45.4313,19.1406 C46.3219,19.1406 47.1344,19.5 47.6188,20.1094 L48.8531,18.5 C48.2281,17.5625 46.9781,17.0469 45.4156,17.0469 C41.9469,17.0469 39.9781,19.25 39.9781,23.0938 C39.9781,27.1406 41.8688,29.1719 45.6031,29.1719 Z " fill="#000000"/><text fill="#000000" font-family="sans-serif" font-size="12" lengthAdjust="spacing" textLength="41" x="63.6" y="27.1543">Enemy</text><line style="stroke:#A80036;stroke-width:1.5;" x1="12.5" x2="125.5" y1="39" y2="39"/><rect fill="none" height="6" style="stroke:#C82930;stroke-width:1.0;" width="6" x="19.5" y="47"/><text fill="#000000" font-family="sans-serif" font-size="11" lengthAdjust="spacing" textLength="89" x="31.5" y="53.2104">Player objective</text><line style="stroke:#A80036;stroke-width:1.5;" x1="12.5" x2="125.5" y1="59.8047" y2="59.8047"/><!--MD5=[2cb47ba637a0d19583e6199456f6ad0b]
class Player--><rect codeLine="4" fill="#FEFECE" filter="url(#f11e0deik3tf66)" height="60.8047" id="Player" style="stroke:#A80036;stroke-width:1.5;" width="124" x="7" y="145"/><ellipse cx="46.3" cy="161" fill="#ADD1B2" rx="11" ry="11" style="stroke:#A80036;stroke-width:1.0;"/><path d="M46.5031,167.1719 C47.55,167.1719 48.5656,166.9844 49.55,166.5938 L49.1594,164.5781 C48.3781,164.9063 47.6125,165.0781 46.7844,165.0781 C44.3938,165.0781 43.175,163.7188 43.175,161 C43.175,158.5469 44.425,157.1406 46.3313,157.1406 C47.2219,157.1406 48.0344,157.5 48.5188,158.1094 L49.7531,156.5 C49.1281,155.5625 47.8781,155.0469 46.3156,155.0469 C42.8469,155.0469 40.8781,157.25 40.8781,161.0938 C40.8781,165.1406 42.7688,167.1719 46.5031,167.1719 Z " fill="#000000"/><text fill="#000000" font-family="sans-serif" font-size="12" lengthAdjust="spacing" textLength="38" x="65.7" y="165.1543">Player</text><line style="stroke:#A80036;stroke-width:1.5;" x1="8" x2="130" y1="177" y2="177"/><rect fill="none" height="6" style="stroke:#C82930;stroke-width:1.0;" width="6" x="15" y="185"/><text fill="#000000" font-family="sans-serif" font-size="11" lengthAdjust="spacing" textLength="98" x="27" y="191.2104">Weapon objective</text><line style="stroke:#A80036;stroke-width:1.5;" x1="8" x2="130" y1="197.8047" y2="197.8047"/><!--MD5=[a3f6aaa3f93db2c29fed664e0312b4de]
class Weapon--><rect fill="#FEFECE" filter="url(#f11e0deik3tf66)" height="48" id="Weapon" style="stroke:#A80036;stroke-width:1.5;" width="83" x="27.5" y="283"/><ellipse cx="42.5" cy="299" fill="#ADD1B2" rx="11" ry="11" style="stroke:#A80036;stroke-width:1.0;"/><path d="M42.7031,305.1719 C43.75,305.1719 44.7656,304.9844 45.75,304.5938 L45.3594,302.5781 C44.5781,302.9063 43.8125,303.0781 42.9844,303.0781 C40.5938,303.0781 39.375,301.7188 39.375,299 C39.375,296.5469 40.625,295.1406 42.5313,295.1406 C43.4219,295.1406 44.2344,295.5 44.7188,296.1094 L45.9531,294.5 C45.3281,293.5625 44.0781,293.0469 42.5156,293.0469 C39.0469,293.0469 37.0781,295.25 37.0781,299.0938 C37.0781,303.1406 38.9688,305.1719 42.7031,305.1719 Z " fill="#000000"/><text fill="#000000" font-family="sans-serif" font-size="12" lengthAdjust="spacing" textLength="51" x="56.5" y="303.1543">Weapon</text><line style="stroke:#A80036;stroke-width:1.5;" x1="28.5" x2="109.5" y1="315" y2="315"/><line style="stroke:#A80036;stroke-width:1.5;" x1="28.5" x2="109.5" y1="323" y2="323"/><!--MD5=[77d60aab9f1b049d3b19dfeb32467ca6]
link Player to Weapon--><path codeLine="7" d="M69,206.21 C69,227.69 69,256.53 69,277.68 " fill="none" id="Player-to-Weapon" style="stroke:#A80036;stroke-width:1.0;"/><polygon fill="#A80036" points="69,282.88,73,273.88,69,277.88,65,273.88,69,282.88" style="stroke:#A80036;stroke-width:1.0;"/><text fill="#000000" font-family="sans-serif" font-size="13" lengthAdjust="spacing" textLength="23" x="70" y="249.0669">uso</text><!--MD5=[f4a127a574616fae7969fe87047db7d8]
link Enemy to Player--><path codeLine="8" d="M69,68.01 C69,88.98 69,117.24 69,139.38 " fill="none" id="Enemy-to-Player" style="stroke:#A80036;stroke-width:1.0;"/><polygon fill="#A80036" points="69,144.58,73,135.58,69,139.58,65,135.58,69,144.58" style="stroke:#A80036;stroke-width:1.0;"/><text fill="#000000" font-family="sans-serif" font-size="13" lengthAdjust="spacing" textLength="23" x="70" y="111.0669">uso</text><!--MD5=[40547def286d26f699b1754e096f8000]
@startuml
class Enemy {
    -Player objective
}
class Player {
    -Weapon objective
}
Player - -> Weapon : uso
Enemy - -> Player : uso
@enduml

PlantUML version 1.2021.00(Sun Jan 10 11:25:05 CET 2021)
(LGPL source distribution)
Java Runtime: OpenJDK Runtime Environment
JVM: OpenJDK 64-Bit Server VM
Default Encoding: UTF-8
Language: es
Country: ES
--></g></svg>