<?xml version="1.0" encoding="UTF-8" standalone="no"?><svg xmlns="http://www.w3.org/2000/svg" xmlns:xlink="http://www.w3.org/1999/xlink" contentScriptType="application/ecmascript" contentStyleType="text/css" height="81px" preserveAspectRatio="none" style="width:94px;height:81px;" version="1.1" viewBox="0 0 94 81" width="94px" zoomAndPan="magnify"><defs><filter height="300%" id="f1640noxn8ojtn" width="300%" x="-1" y="-1"><feGaussianBlur result="blurOut" stdDeviation="2.0"/><feColorMatrix in="blurOut" result="blurOut2" type="matrix" values="0 0 0 0 0 0 0 0 0 0 0 0 0 0 0 0 0 0 .4 0"/><feOffset dx="4.0" dy="4.0" in="blurOut2" result="blurOut3"/><feBlend in="SourceGraphic" in2="blurOut3" mode="normal"/></filter></defs><g><!--MD5=[1cb3dca014c9afc5465c20d03b3a6575]
class Fruta--><rect codeLine="1" fill="#FEFECE" filter="url(#f1640noxn8ojtn)" height="60.8047" id="Fruta" style="stroke:#A80036;stroke-width:1.5;" width="73" x="7" y="7"/><ellipse cx="25.6" cy="23" fill="#ADD1B2" rx="11" ry="11" style="stroke:#A80036;stroke-width:1.0;"/><path d="M25.8031,29.1719 C26.85,29.1719 27.8656,28.9844 28.85,28.5938 L28.4594,26.5781 C27.6781,26.9063 26.9125,27.0781 26.0844,27.0781 C23.6938,27.0781 22.475,25.7188 22.475,23 C22.475,20.5469 23.725,19.1406 25.6313,19.1406 C26.5219,19.1406 27.3344,19.5 27.8188,20.1094 L29.0531,18.5 C28.4281,17.5625 27.1781,17.0469 25.6156,17.0469 C22.1469,17.0469 20.1781,19.25 20.1781,23.0938 C20.1781,27.1406 22.0688,29.1719 25.8031,29.1719 Z " fill="#000000"/><text fill="#000000" font-family="sans-serif" font-size="12" lengthAdjust="spacing" textLength="33" x="40.4" y="27.1543">Fruta</text><line style="stroke:#A80036;stroke-width:1.5;" x1="8" x2="79" y1="39" y2="39"/><text fill="#000000" font-family="sans-serif" font-size="11" lengthAdjust="spacing" textLength="61" x="13" y="53.2104">int tamaño</text><line style="stroke:#A80036;stroke-width:1.5;" x1="8" x2="79" y1="59.8047" y2="59.8047"/><!--MD5=[ee6c088074ccd83adc4f432a1e239e89]
@startuml
class Fruta {
    int tamaño
}
@enduml

PlantUML version 1.2021.00(Sun Jan 10 11:25:05 CET 2021)
(LGPL source distribution)
Java Runtime: OpenJDK Runtime Environment
JVM: OpenJDK 64-Bit Server VM
Default Encoding: UTF-8
Language: es
Country: ES
--></g></svg>