<?xml version="1.0" encoding="UTF-8" standalone="no"?><svg xmlns="http://www.w3.org/2000/svg" xmlns:xlink="http://www.w3.org/1999/xlink" contentScriptType="application/ecmascript" contentStyleType="text/css" height="162px" preserveAspectRatio="none" style="width:288px;height:162px;" version="1.1" viewBox="0 0 288 162" width="288px" zoomAndPan="magnify"><defs><filter height="300%" id="fjbfotd91ttx6" width="300%" x="-1" y="-1"><feGaussianBlur result="blurOut" stdDeviation="2.0"/><feColorMatrix in="blurOut" result="blurOut2" type="matrix" values="0 0 0 0 0 0 0 0 0 0 0 0 0 0 0 0 0 0 .4 0"/><feOffset dx="4.0" dy="4.0" in="blurOut2" result="blurOut3"/><feBlend in="SourceGraphic" in2="blurOut3" mode="normal"/></filter></defs><g><!--MD5=[a3f6aaa3f93db2c29fed664e0312b4de]
class Weapon--><rect fill="#FEFECE" filter="url(#fjbfotd91ttx6)" height="32" id="Weapon" style="stroke:#A80036;stroke-width:1.5;" width="83" x="95.5" y="7"/><ellipse cx="110.5" cy="23" fill="#ADD1B2" rx="11" ry="11" style="stroke:#A80036;stroke-width:1.0;"/><path d="M110.7031,29.1719 C111.75,29.1719 112.7656,28.9844 113.75,28.5938 L113.3594,26.5781 C112.5781,26.9063 111.8125,27.0781 110.9844,27.0781 C108.5938,27.0781 107.375,25.7188 107.375,23 C107.375,20.5469 108.625,19.1406 110.5313,19.1406 C111.4219,19.1406 112.2344,19.5 112.7188,20.1094 L113.9531,18.5 C113.3281,17.5625 112.0781,17.0469 110.5156,17.0469 C107.0469,17.0469 105.0781,19.25 105.0781,23.0938 C105.0781,27.1406 106.9688,29.1719 110.7031,29.1719 Z " fill="#000000"/><text fill="#000000" font-family="sans-serif" font-size="12" lengthAdjust="spacing" textLength="51" x="124.5" y="27.1543">Weapon</text><!--MD5=[00bfe8363f1fb66a8da2b7e24e291a7c]
class AttackPower--><rect fill="#FEFECE" filter="url(#fjbfotd91ttx6)" height="32" id="AttackPower" style="stroke:#A80036;stroke-width:1.5;" width="110" x="7" y="116"/><ellipse cx="22" cy="132" fill="#ADD1B2" rx="11" ry="11" style="stroke:#A80036;stroke-width:1.0;"/><path d="M22.2031,138.1719 C23.25,138.1719 24.2656,137.9844 25.25,137.5938 L24.8594,135.5781 C24.0781,135.9063 23.3125,136.0781 22.4844,136.0781 C20.0938,136.0781 18.875,134.7188 18.875,132 C18.875,129.5469 20.125,128.1406 22.0313,128.1406 C22.9219,128.1406 23.7344,128.5 24.2188,129.1094 L25.4531,127.5 C24.8281,126.5625 23.5781,126.0469 22.0156,126.0469 C18.5469,126.0469 16.5781,128.25 16.5781,132.0938 C16.5781,136.1406 18.4688,138.1719 22.2031,138.1719 Z " fill="#000000"/><text fill="#000000" font-family="sans-serif" font-size="12" lengthAdjust="spacing" textLength="78" x="36" y="136.1543">AttackPower</text><!--MD5=[16902cec7454f4669fa8bf65a6169e6a]
class DefensePower--><rect fill="#FEFECE" filter="url(#fjbfotd91ttx6)" height="32" id="DefensePower" style="stroke:#A80036;stroke-width:1.5;" width="122" x="152" y="116"/><ellipse cx="167" cy="132" fill="#ADD1B2" rx="11" ry="11" style="stroke:#A80036;stroke-width:1.0;"/><path d="M167.2031,138.1719 C168.25,138.1719 169.2656,137.9844 170.25,137.5938 L169.8594,135.5781 C169.0781,135.9063 168.3125,136.0781 167.4844,136.0781 C165.0938,136.0781 163.875,134.7188 163.875,132 C163.875,129.5469 165.125,128.1406 167.0313,128.1406 C167.9219,128.1406 168.7344,128.5 169.2188,129.1094 L170.4531,127.5 C169.8281,126.5625 168.5781,126.0469 167.0156,126.0469 C163.5469,126.0469 161.5781,128.25 161.5781,132.0938 C161.5781,136.1406 163.4688,138.1719 167.2031,138.1719 Z " fill="#000000"/><text fill="#000000" font-family="sans-serif" font-size="12" lengthAdjust="spacing" textLength="90" x="181" y="136.1543">DefensePower</text><!--MD5=[6a853edd5ffd4eb37a19a2944c54a1b1]
reverse link Weapon to AttackPower--><path codeLine="1" d="M118.66,50.16 C104.26,70.71 84.69,98.63 72.73,115.7 " fill="none" id="Weapon-backto-AttackPower" style="stroke:#A80036;stroke-width:1.0;"/><polygon fill="#A80036" points="126.25,39.33,119.5288,41.9425,119.3552,49.1515,126.0764,46.539,126.25,39.33" style="stroke:#A80036;stroke-width:1.0;"/><text fill="#000000" font-family="sans-serif" font-size="13" lengthAdjust="spacing" textLength="54" x="105" y="82.0669">parte de</text><!--MD5=[d94df6a114d3ef99dbc8a4020960f4a5]
reverse link Weapon to DefensePower--><path codeLine="2" d="M155.58,50.16 C170.18,70.71 190.01,98.63 202.13,115.7 " fill="none" id="Weapon-backto-DefensePower" style="stroke:#A80036;stroke-width:1.0;"/><polygon fill="#A80036" points="147.89,39.33,148.1032,46.538,154.8386,49.1135,154.6255,41.9055,147.89,39.33" style="stroke:#A80036;stroke-width:1.0;"/><text fill="#000000" font-family="sans-serif" font-size="13" lengthAdjust="spacing" textLength="54" x="180" y="82.0669">parte de</text><!--MD5=[9e740a52c4573b32bbd4844bf8e4874e]
@startuml
Weapon *- - AttackPower : parte de
Weapon *- - DefensePower : parte de
hide members
@enduml

PlantUML version 1.2021.00(Sun Jan 10 11:25:05 CET 2021)
(LGPL source distribution)
Java Runtime: OpenJDK Runtime Environment
JVM: OpenJDK 64-Bit Server VM
Default Encoding: UTF-8
Language: es
Country: ES
--></g></svg>