<?xml version="1.0" encoding="UTF-8" standalone="no"?><svg xmlns="http://www.w3.org/2000/svg" xmlns:xlink="http://www.w3.org/1999/xlink" contentScriptType="application/ecmascript" contentStyleType="text/css" height="177px" preserveAspectRatio="none" style="width:171px;height:177px;" version="1.1" viewBox="0 0 171 177" width="171px" zoomAndPan="magnify"><defs><filter height="300%" id="fs5v8xnpv0whx" width="300%" x="-1" y="-1"><feGaussianBlur result="blurOut" stdDeviation="2.0"/><feColorMatrix in="blurOut" result="blurOut2" type="matrix" values="0 0 0 0 0 0 0 0 0 0 0 0 0 0 0 0 0 0 .4 0"/><feOffset dx="4.0" dy="4.0" in="blurOut2" result="blurOut3"/><feBlend in="SourceGraphic" in2="blurOut3" mode="normal"/></filter></defs><g><!--MD5=[1cb3dca014c9afc5465c20d03b3a6575]
class Fruta--><rect fill="#FEFECE" filter="url(#fs5v8xnpv0whx)" height="48" id="Fruta" style="stroke:#A80036;stroke-width:1.5;" width="65" x="51" y="7"/><ellipse cx="66" cy="23" fill="#ADD1B2" rx="11" ry="11" style="stroke:#A80036;stroke-width:1.0;"/><path d="M66.2031,29.1719 C67.25,29.1719 68.2656,28.9844 69.25,28.5938 L68.8594,26.5781 C68.0781,26.9063 67.3125,27.0781 66.4844,27.0781 C64.0938,27.0781 62.875,25.7188 62.875,23 C62.875,20.5469 64.125,19.1406 66.0313,19.1406 C66.9219,19.1406 67.7344,19.5 68.2188,20.1094 L69.4531,18.5 C68.8281,17.5625 67.5781,17.0469 66.0156,17.0469 C62.5469,17.0469 60.5781,19.25 60.5781,23.0938 C60.5781,27.1406 62.4688,29.1719 66.2031,29.1719 Z " fill="#000000"/><text fill="#000000" font-family="sans-serif" font-size="12" lengthAdjust="spacing" textLength="33" x="80" y="27.1543">Fruta</text><line style="stroke:#A80036;stroke-width:1.5;" x1="52" x2="115" y1="39" y2="39"/><line style="stroke:#A80036;stroke-width:1.5;" x1="52" x2="115" y1="47" y2="47"/><!--MD5=[543bc086b4b831ac4fd764110488922e]
class Tallo--><rect fill="#FEFECE" filter="url(#fs5v8xnpv0whx)" height="48" id="Tallo" style="stroke:#A80036;stroke-width:1.5;" width="61" x="7" y="115"/><ellipse cx="22" cy="131" fill="#ADD1B2" rx="11" ry="11" style="stroke:#A80036;stroke-width:1.0;"/><path d="M22.2031,137.1719 C23.25,137.1719 24.2656,136.9844 25.25,136.5938 L24.8594,134.5781 C24.0781,134.9063 23.3125,135.0781 22.4844,135.0781 C20.0938,135.0781 18.875,133.7188 18.875,131 C18.875,128.5469 20.125,127.1406 22.0313,127.1406 C22.9219,127.1406 23.7344,127.5 24.2188,128.1094 L25.4531,126.5 C24.8281,125.5625 23.5781,125.0469 22.0156,125.0469 C18.5469,125.0469 16.5781,127.25 16.5781,131.0938 C16.5781,135.1406 18.4688,137.1719 22.2031,137.1719 Z " fill="#000000"/><text fill="#000000" font-family="sans-serif" font-size="12" lengthAdjust="spacing" textLength="29" x="36" y="135.1543">Tallo</text><line style="stroke:#A80036;stroke-width:1.5;" x1="8" x2="67" y1="147" y2="147"/><line style="stroke:#A80036;stroke-width:1.5;" x1="8" x2="67" y1="155" y2="155"/><!--MD5=[f7243fbbc54184e137491ec4480c650b]
class Piel--><rect fill="#FEFECE" filter="url(#fs5v8xnpv0whx)" height="48" id="Piel" style="stroke:#A80036;stroke-width:1.5;" width="54" x="103.5" y="115"/><ellipse cx="118.5" cy="131" fill="#ADD1B2" rx="11" ry="11" style="stroke:#A80036;stroke-width:1.0;"/><path d="M118.7031,137.1719 C119.75,137.1719 120.7656,136.9844 121.75,136.5938 L121.3594,134.5781 C120.5781,134.9063 119.8125,135.0781 118.9844,135.0781 C116.5938,135.0781 115.375,133.7188 115.375,131 C115.375,128.5469 116.625,127.1406 118.5313,127.1406 C119.4219,127.1406 120.2344,127.5 120.7188,128.1094 L121.9531,126.5 C121.3281,125.5625 120.0781,125.0469 118.5156,125.0469 C115.0469,125.0469 113.0781,127.25 113.0781,131.0938 C113.0781,135.1406 114.9688,137.1719 118.7031,137.1719 Z " fill="#000000"/><text fill="#000000" font-family="sans-serif" font-size="12" lengthAdjust="spacing" textLength="22" x="132.5" y="135.1543">Piel</text><line style="stroke:#A80036;stroke-width:1.5;" x1="104.5" x2="156.5" y1="147" y2="147"/><line style="stroke:#A80036;stroke-width:1.5;" x1="104.5" x2="156.5" y1="155" y2="155"/><!--MD5=[e9c6bea047b3366206cea167014b4c29]
reverse link Fruta to Tallo--><path codeLine="2" d="M68.34,66.94 C61.54,82.61 53.69,100.68 47.62,114.68 " fill="none" id="Fruta-backto-Tallo" style="stroke:#A80036;stroke-width:1.0;"/><polygon fill="#A80036" points="73.52,55,67.4595,58.9078,68.7358,66.0051,74.7962,62.0973,73.52,55" style="stroke:#A80036;stroke-width:1.0;"/><!--MD5=[b6fb8e103298d44e8a339b3361f23341]
reverse link Fruta to Piel--><path codeLine="3" d="M98.99,66.94 C105.94,82.61 113.95,100.68 120.16,114.68 " fill="none" id="Fruta-backto-Piel" style="stroke:#A80036;stroke-width:1.0;"/><polygon fill="#A80036" points="93.7,55,92.476,62.1065,98.5651,65.9695,99.7891,58.8631,93.7,55" style="stroke:#A80036;stroke-width:1.0;"/><!--MD5=[1e1b9c55485338d7d819448a0a8eb7ff]
@startuml Composición

Fruta *- - Tallo
Fruta *- - Piel

@enduml

PlantUML version 1.2021.00(Sun Jan 10 11:25:05 CET 2021)
(LGPL source distribution)
Java Runtime: OpenJDK Runtime Environment
JVM: OpenJDK 64-Bit Server VM
Default Encoding: UTF-8
Language: es
Country: ES
--></g></svg>