<?xml version="1.0" encoding="UTF-8" standalone="no"?><svg xmlns="http://www.w3.org/2000/svg" xmlns:xlink="http://www.w3.org/1999/xlink" contentScriptType="application/ecmascript" contentStyleType="text/css" height="69px" preserveAspectRatio="none" style="width:86px;height:69px;" version="1.1" viewBox="0 0 86 69" width="86px" zoomAndPan="magnify"><defs><filter height="300%" id="f5gi0nlt6fkvp" width="300%" x="-1" y="-1"><feGaussianBlur result="blurOut" stdDeviation="2.0"/><feColorMatrix in="blurOut" result="blurOut2" type="matrix" values="0 0 0 0 0 0 0 0 0 0 0 0 0 0 0 0 0 0 .4 0"/><feOffset dx="4.0" dy="4.0" in="blurOut2" result="blurOut3"/><feBlend in="SourceGraphic" in2="blurOut3" mode="normal"/></filter></defs><g><!--MD5=[1cb3dca014c9afc5465c20d03b3a6575]
class Fruta--><rect codeLine="1" fill="#FEFECE" filter="url(#f5gi0nlt6fkvp)" height="48" id="Fruta" style="stroke:#A80036;stroke-width:1.5;" width="65" x="7" y="7"/><ellipse cx="22" cy="23" fill="#ADD1B2" rx="11" ry="11" style="stroke:#A80036;stroke-width:1.0;"/><path d="M22.2031,29.1719 C23.25,29.1719 24.2656,28.9844 25.25,28.5938 L24.8594,26.5781 C24.0781,26.9063 23.3125,27.0781 22.4844,27.0781 C20.0938,27.0781 18.875,25.7188 18.875,23 C18.875,20.5469 20.125,19.1406 22.0313,19.1406 C22.9219,19.1406 23.7344,19.5 24.2188,20.1094 L25.4531,18.5 C24.8281,17.5625 23.5781,17.0469 22.0156,17.0469 C18.5469,17.0469 16.5781,19.25 16.5781,23.0938 C16.5781,27.1406 18.4688,29.1719 22.2031,29.1719 Z " fill="#000000"/><text fill="#000000" font-family="sans-serif" font-size="12" lengthAdjust="spacing" textLength="33" x="36" y="27.1543">Fruta</text><line style="stroke:#A80036;stroke-width:1.5;" x1="8" x2="71" y1="39" y2="39"/><line style="stroke:#A80036;stroke-width:1.5;" x1="8" x2="71" y1="47" y2="47"/><!--MD5=[98ad673c7e723330be78bb19a11577d3]
@startuml
class Fruta
@enduml

PlantUML version 1.2021.00(Sun Jan 10 11:25:05 CET 2021)
(LGPL source distribution)
Java Runtime: OpenJDK Runtime Environment
JVM: OpenJDK 64-Bit Server VM
Default Encoding: UTF-8
Language: es
Country: ES
--></g></svg>