<?xml version="1.0" encoding="UTF-8" standalone="no"?><svg xmlns="http://www.w3.org/2000/svg" xmlns:xlink="http://www.w3.org/1999/xlink" contentScriptType="application/ecmascript" contentStyleType="text/css" height="380px" preserveAspectRatio="none" style="width:104px;height:380px;" version="1.1" viewBox="0 0 104 380" width="104px" zoomAndPan="magnify"><defs><filter height="300%" id="fay2261khjbpb" width="300%" x="-1" y="-1"><feGaussianBlur result="blurOut" stdDeviation="2.0"/><feColorMatrix in="blurOut" result="blurOut2" type="matrix" values="0 0 0 0 0 0 0 0 0 0 0 0 0 0 0 0 0 0 .4 0"/><feOffset dx="4.0" dy="4.0" in="blurOut2" result="blurOut3"/><feBlend in="SourceGraphic" in2="blurOut3" mode="normal"/></filter></defs><g><!--MD5=[be996cdb8e6bf2fc7cb89c555f2cd144]
class Entity--><rect fill="#FEFECE" filter="url(#fay2261khjbpb)" height="32" id="Entity" style="stroke:#A80036;stroke-width:1.5;" width="67" x="15" y="7"/><ellipse cx="30" cy="23" fill="#ADD1B2" rx="11" ry="11" style="stroke:#A80036;stroke-width:1.0;"/><path d="M30.2031,29.1719 C31.25,29.1719 32.2656,28.9844 33.25,28.5938 L32.8594,26.5781 C32.0781,26.9063 31.3125,27.0781 30.4844,27.0781 C28.0938,27.0781 26.875,25.7188 26.875,23 C26.875,20.5469 28.125,19.1406 30.0313,19.1406 C30.9219,19.1406 31.7344,19.5 32.2188,20.1094 L33.4531,18.5 C32.8281,17.5625 31.5781,17.0469 30.0156,17.0469 C26.5469,17.0469 24.5781,19.25 24.5781,23.0938 C24.5781,27.1406 26.4688,29.1719 30.2031,29.1719 Z " fill="#000000"/><text fill="#000000" font-family="sans-serif" font-size="12" lengthAdjust="spacing" textLength="35" x="44" y="27.1543">Entity</text><!--MD5=[cbc984a6a6086109243884c87806a70e]
class Movable--><rect fill="#FEFECE" filter="url(#fay2261khjbpb)" height="32" id="Movable" style="stroke:#A80036;stroke-width:1.5;" width="83" x="7" y="116"/><ellipse cx="22" cy="132" fill="#ADD1B2" rx="11" ry="11" style="stroke:#A80036;stroke-width:1.0;"/><path d="M22.2031,138.1719 C23.25,138.1719 24.2656,137.9844 25.25,137.5938 L24.8594,135.5781 C24.0781,135.9063 23.3125,136.0781 22.4844,136.0781 C20.0938,136.0781 18.875,134.7188 18.875,132 C18.875,129.5469 20.125,128.1406 22.0313,128.1406 C22.9219,128.1406 23.7344,128.5 24.2188,129.1094 L25.4531,127.5 C24.8281,126.5625 23.5781,126.0469 22.0156,126.0469 C18.5469,126.0469 16.5781,128.25 16.5781,132.0938 C16.5781,136.1406 18.4688,138.1719 22.2031,138.1719 Z " fill="#000000"/><text fill="#000000" font-family="sans-serif" font-size="12" lengthAdjust="spacing" textLength="51" x="36" y="136.1543">Movable</text><!--MD5=[35fa7ce99f1adf91ef35d4c75e6a0d1c]
class Visible--><rect fill="#FEFECE" filter="url(#fay2261khjbpb)" height="32" id="Visible" style="stroke:#A80036;stroke-width:1.5;" width="72" x="12.5" y="225"/><ellipse cx="27.5" cy="241" fill="#ADD1B2" rx="11" ry="11" style="stroke:#A80036;stroke-width:1.0;"/><path d="M27.7031,247.1719 C28.75,247.1719 29.7656,246.9844 30.75,246.5938 L30.3594,244.5781 C29.5781,244.9063 28.8125,245.0781 27.9844,245.0781 C25.5938,245.0781 24.375,243.7188 24.375,241 C24.375,238.5469 25.625,237.1406 27.5313,237.1406 C28.4219,237.1406 29.2344,237.5 29.7188,238.1094 L30.9531,236.5 C30.3281,235.5625 29.0781,235.0469 27.5156,235.0469 C24.0469,235.0469 22.0781,237.25 22.0781,241.0938 C22.0781,245.1406 23.9688,247.1719 27.7031,247.1719 Z " fill="#000000"/><text fill="#000000" font-family="sans-serif" font-size="12" lengthAdjust="spacing" textLength="40" x="41.5" y="245.1543">Visible</text><!--MD5=[2cb47ba637a0d19583e6199456f6ad0b]
class Player--><rect fill="#FEFECE" filter="url(#fay2261khjbpb)" height="32" id="Player" style="stroke:#A80036;stroke-width:1.5;" width="70" x="13.5" y="334"/><ellipse cx="28.5" cy="350" fill="#ADD1B2" rx="11" ry="11" style="stroke:#A80036;stroke-width:1.0;"/><path d="M28.7031,356.1719 C29.75,356.1719 30.7656,355.9844 31.75,355.5938 L31.3594,353.5781 C30.5781,353.9063 29.8125,354.0781 28.9844,354.0781 C26.5938,354.0781 25.375,352.7188 25.375,350 C25.375,347.5469 26.625,346.1406 28.5313,346.1406 C29.4219,346.1406 30.2344,346.5 30.7188,347.1094 L31.9531,345.5 C31.3281,344.5625 30.0781,344.0469 28.5156,344.0469 C25.0469,344.0469 23.0781,346.25 23.0781,350.0938 C23.0781,354.1406 24.9688,356.1719 28.7031,356.1719 Z " fill="#000000"/><text fill="#000000" font-family="sans-serif" font-size="12" lengthAdjust="spacing" textLength="38" x="42.5" y="354.1543">Player</text><!--MD5=[5b8eaa92dd224dc8459d82dba34df021]
reverse link Entity to Movable--><path codeLine="1" d="M48.5,59.45 C48.5,78.54 48.5,101.09 48.5,115.7 " fill="none" id="Entity-backto-Movable" style="stroke:#A80036;stroke-width:1.0;"/><polygon fill="none" points="41.5,59.33,48.5,39.33,55.5,59.33,41.5,59.33" style="stroke:#A80036;stroke-width:1.0;"/><text fill="#000000" font-family="sans-serif" font-size="13" lengthAdjust="spacing" textLength="36" x="49.5" y="82.0669">es-un</text><!--MD5=[26afc2aeaa9b22f65758e6f255594cf4]
reverse link Movable to Visible--><path codeLine="2" d="M48.5,168.45 C48.5,187.54 48.5,210.09 48.5,224.7 " fill="none" id="Movable-backto-Visible" style="stroke:#A80036;stroke-width:1.0;"/><polygon fill="none" points="41.5,168.33,48.5,148.33,55.5,168.33,41.5,168.33" style="stroke:#A80036;stroke-width:1.0;"/><text fill="#000000" font-family="sans-serif" font-size="13" lengthAdjust="spacing" textLength="36" x="49.5" y="191.0669">es-un</text><!--MD5=[489215d9c830386786861197af447043]
reverse link Visible to Player--><path codeLine="3" d="M48.5,277.45 C48.5,296.54 48.5,319.09 48.5,333.7 " fill="none" id="Visible-backto-Player" style="stroke:#A80036;stroke-width:1.0;"/><polygon fill="none" points="41.5,277.33,48.5,257.33,55.5,277.33,41.5,277.33" style="stroke:#A80036;stroke-width:1.0;"/><text fill="#000000" font-family="sans-serif" font-size="13" lengthAdjust="spacing" textLength="36" x="49.5" y="300.0669">es-un</text><!--MD5=[9a20d560b4251b50fc4f19824180756a]
@startuml
Entity <|- - Movable : es-un
Movable<|- - Visible : es-un
Visible<|- - Player : es-un
hide members
@enduml

PlantUML version 1.2021.00(Sun Jan 10 11:25:05 CET 2021)
(LGPL source distribution)
Java Runtime: OpenJDK Runtime Environment
JVM: OpenJDK 64-Bit Server VM
Default Encoding: UTF-8
Language: es
Country: ES
--></g></svg>