<?xml version="1.0" encoding="UTF-8" standalone="no"?><svg xmlns="http://www.w3.org/2000/svg" xmlns:xlink="http://www.w3.org/1999/xlink" contentScriptType="application/ecmascript" contentStyleType="text/css" height="374px" preserveAspectRatio="none" style="width:104px;height:374px;" version="1.1" viewBox="0 0 104 374" width="104px" zoomAndPan="magnify"><defs><filter height="300%" id="f118hc9g3rbqrn" width="300%" x="-1" y="-1"><feGaussianBlur result="blurOut" stdDeviation="2.0"/><feColorMatrix in="blurOut" result="blurOut2" type="matrix" values="0 0 0 0 0 0 0 0 0 0 0 0 0 0 0 0 0 0 .4 0"/><feOffset dx="4.0" dy="4.0" in="blurOut2" result="blurOut3"/><feBlend in="SourceGraphic" in2="blurOut3" mode="normal"/></filter></defs><g><!--MD5=[be996cdb8e6bf2fc7cb89c555f2cd144]
class Entity--><rect codeLine="9" fill="#FEFECE" filter="url(#f118hc9g3rbqrn)" height="73.6094" id="Entity" style="stroke:#A80036;stroke-width:1.5;" width="68" x="14.5" y="7"/><ellipse cx="29.5" cy="23" fill="#A9DCDF" rx="11" ry="11" style="stroke:#A80036;stroke-width:1.0;"/><path d="M24.7344,28.25 L27.0938,28.25 L27.6719,26.0156 L31.2813,26.0156 L31.8594,28.25 L34.2344,28.25 L30.8281,16.4688 L28.1406,16.4688 L24.7344,28.25 Z M28.2031,23.9844 L29.4063,19.3438 L29.5625,19.3438 L30.7656,23.9844 L28.2031,23.9844 Z " fill="#000000"/><text fill="#000000" font-family="sans-serif" font-size="12" font-style="italic" lengthAdjust="spacing" textLength="36" x="43.5" y="27.1543">Entity</text><line style="stroke:#A80036;stroke-width:1.5;" x1="15.5" x2="81.5" y1="39" y2="39"/><rect fill="none" height="6" style="stroke:#C82930;stroke-width:1.0;" width="6" x="22.5" y="47"/><text fill="#000000" font-family="sans-serif" font-size="11" lengthAdjust="spacing" textLength="10" x="34.5" y="53.2104">id</text><line style="stroke:#A80036;stroke-width:1.5;" x1="15.5" x2="81.5" y1="59.8047" y2="59.8047"/><ellipse cx="25.5" cy="70.8047" fill="#84BE84" rx="3" ry="3" style="stroke:#038048;stroke-width:1.0;"/><text fill="#000000" font-family="sans-serif" font-size="11" font-style="italic" lengthAdjust="spacing" textLength="27" x="34.5" y="74.0151">tick()</text><!--MD5=[cbc984a6a6086109243884c87806a70e]
class Movable--><rect codeLine="13" fill="#FEFECE" filter="url(#f118hc9g3rbqrn)" height="99.2188" id="Movable" style="stroke:#A80036;stroke-width:1.5;" width="83" x="7" y="141"/><ellipse cx="22" cy="157" fill="#A9DCDF" rx="11" ry="11" style="stroke:#A80036;stroke-width:1.0;"/><path d="M17.2344,162.25 L19.5938,162.25 L20.1719,160.0156 L23.7813,160.0156 L24.3594,162.25 L26.7344,162.25 L23.3281,150.4688 L20.6406,150.4688 L17.2344,162.25 Z M20.7031,157.9844 L21.9063,153.3438 L22.0625,153.3438 L23.2656,157.9844 L20.7031,157.9844 Z " fill="#000000"/><text fill="#000000" font-family="sans-serif" font-size="12" font-style="italic" lengthAdjust="spacing" textLength="51" x="36" y="161.1543">Movable</text><line style="stroke:#A80036;stroke-width:1.5;" x1="8" x2="89" y1="173" y2="173"/><rect fill="none" height="6" style="stroke:#C82930;stroke-width:1.0;" width="6" x="15" y="181"/><text fill="#000000" font-family="sans-serif" font-size="11" lengthAdjust="spacing" textLength="12" x="27" y="187.2104">vx</text><rect fill="none" height="6" style="stroke:#C82930;stroke-width:1.0;" width="6" x="15" y="193.8047"/><text fill="#000000" font-family="sans-serif" font-size="11" lengthAdjust="spacing" textLength="12" x="27" y="200.0151">vy</text><text fill="#000000" font-family="sans-serif" font-size="11" lengthAdjust="spacing" textLength="10" x="27" y="212.8198">-x</text><text fill="#000000" font-family="sans-serif" font-size="11" lengthAdjust="spacing" textLength="10" x="27" y="225.6245">-y</text><line style="stroke:#A80036;stroke-width:1.5;" x1="8" x2="89" y1="232.2188" y2="232.2188"/><!--MD5=[80c532e980642ebbe770e7ed91e479d0]
class Enemy--><rect codeLine="19" fill="#FEFECE" filter="url(#f118hc9g3rbqrn)" height="60.8047" id="Enemy" style="stroke:#A80036;stroke-width:1.5;" width="76" x="10.5" y="300"/><ellipse cx="26.4" cy="316" fill="#A9DCDF" rx="11" ry="11" style="stroke:#A80036;stroke-width:1.0;"/><path d="M21.6344,321.25 L23.9938,321.25 L24.5719,319.0156 L28.1813,319.0156 L28.7594,321.25 L31.1344,321.25 L27.7281,309.4688 L25.0406,309.4688 L21.6344,321.25 Z M25.1031,316.9844 L26.3063,312.3438 L26.4625,312.3438 L27.6656,316.9844 L25.1031,316.9844 Z " fill="#000000"/><text fill="#000000" font-family="sans-serif" font-size="12" font-style="italic" lengthAdjust="spacing" textLength="42" x="40.6" y="320.1543">Enemy</text><line style="stroke:#A80036;stroke-width:1.5;" x1="11.5" x2="85.5" y1="332" y2="332"/><rect fill="none" height="6" style="stroke:#C82930;stroke-width:1.0;" width="6" x="18.5" y="340"/><text fill="#000000" font-family="sans-serif" font-size="11" lengthAdjust="spacing" textLength="50" x="30.5" y="346.2104">objective</text><line style="stroke:#A80036;stroke-width:1.5;" x1="11.5" x2="85.5" y1="352.8047" y2="352.8047"/><!--MD5=[5b8eaa92dd224dc8459d82dba34df021]
reverse link Entity to Movable--><path codeLine="2" d="M48.5,101.35 C48.5,114.38 48.5,128.13 48.5,140.8 " fill="none" id="Entity-backto-Movable" style="stroke:#A80036;stroke-width:1.0;"/><polygon fill="none" points="41.5,101.09,48.5,81.09,55.5,101.09,41.5,101.09" style="stroke:#A80036;stroke-width:1.0;"/><!--MD5=[f1170e3d143e45171632921bd569d22f]
reverse link Movable to Enemy--><path codeLine="5" d="M48.5,260.24 C48.5,274.14 48.5,288.06 48.5,299.73 " fill="none" id="Movable-backto-Enemy" style="stroke:#A80036;stroke-width:1.0;"/><polygon fill="none" points="41.5,260.15,48.5,240.15,55.5,260.15,41.5,260.15" style="stroke:#A80036;stroke-width:1.0;"/><!--MD5=[b158995b9332f8eb9e84c03de4daede1]
@startuml

Entity <|- - Movable
/' Entity <|- - Weapon '/
/' abstract Movable <|- - Player '/
Movable <|- - Enemy
/' Game "1" *- - "*" Entity '/
/' Player o- - Weapon : aggregation '/
/' hide members '/
abstract class Entity {
    {abstract} +tick()
    -id
}
abstract class Movable {
    -vx
    -vy
    -x
    -y
}
abstract class Enemy {
    -objective
}
@enduml

@startuml

Entity <|- - Movable
Movable <|- - Enemy
abstract class Entity {
    {abstract} +tick()
    -id
}
abstract class Movable {
    -vx
    -vy
    -x
    -y
}
abstract class Enemy {
    -objective
}
@enduml

PlantUML version 1.2021.00(Sun Jan 10 11:25:05 CET 2021)
(LGPL source distribution)
Java Runtime: OpenJDK Runtime Environment
JVM: OpenJDK 64-Bit Server VM
Default Encoding: UTF-8
Language: es
Country: ES
--></g></svg>