<?xml version="1.0" encoding="UTF-8" standalone="no"?><svg xmlns="http://www.w3.org/2000/svg" xmlns:xlink="http://www.w3.org/1999/xlink" contentScriptType="application/ecmascript" contentStyleType="text/css" height="311px" preserveAspectRatio="none" style="width:256px;height:311px;" version="1.1" viewBox="0 0 256 311" width="256px" zoomAndPan="magnify"><defs><filter height="300%" id="f1nrchg55bfejb" width="300%" x="-1" y="-1"><feGaussianBlur result="blurOut" stdDeviation="2.0"/><feColorMatrix in="blurOut" result="blurOut2" type="matrix" values="0 0 0 0 0 0 0 0 0 0 0 0 0 0 0 0 0 0 .4 0"/><feOffset dx="4.0" dy="4.0" in="blurOut2" result="blurOut3"/><feBlend in="SourceGraphic" in2="blurOut3" mode="normal"/></filter></defs><g><!--MD5=[1cb3dca014c9afc5465c20d03b3a6575]
class Fruta--><rect codeLine="1" fill="#FEFECE" filter="url(#f1nrchg55bfejb)" height="73.6094" id="Fruta" style="stroke:#A80036;stroke-width:1.5;" width="83" x="115.5" y="7"/><ellipse cx="138.6" cy="23" fill="#ADD1B2" rx="11" ry="11" style="stroke:#A80036;stroke-width:1.0;"/><path d="M138.8031,29.1719 C139.85,29.1719 140.8656,28.9844 141.85,28.5938 L141.4594,26.5781 C140.6781,26.9063 139.9125,27.0781 139.0844,27.0781 C136.6938,27.0781 135.475,25.7188 135.475,23 C135.475,20.5469 136.725,19.1406 138.6313,19.1406 C139.5219,19.1406 140.3344,19.5 140.8188,20.1094 L142.0531,18.5 C141.4281,17.5625 140.1781,17.0469 138.6156,17.0469 C135.1469,17.0469 133.1781,19.25 133.1781,23.0938 C133.1781,27.1406 135.0688,29.1719 138.8031,29.1719 Z " fill="#000000"/><text fill="#000000" font-family="sans-serif" font-size="12" lengthAdjust="spacing" textLength="33" x="154.4" y="27.1543">Fruta</text><line style="stroke:#A80036;stroke-width:1.5;" x1="116.5" x2="197.5" y1="39" y2="39"/><text fill="#000000" font-family="sans-serif" font-size="11" lengthAdjust="spacing" textLength="61" x="121.5" y="53.2104">int tamaño</text><line style="stroke:#A80036;stroke-width:1.5;" x1="116.5" x2="197.5" y1="59.8047" y2="59.8047"/><text fill="#000000" font-family="sans-serif" font-size="11" lengthAdjust="spacing" textLength="71" x="121.5" y="74.0151">void comer()</text><!--MD5=[bb464e4caa4f7f005857ca9509a61a47]
class Manzana--><rect fill="#FEFECE" filter="url(#f1nrchg55bfejb)" height="48" id="Manzana" style="stroke:#A80036;stroke-width:1.5;" width="87" x="59.5" y="141"/><ellipse cx="74.5" cy="157" fill="#ADD1B2" rx="11" ry="11" style="stroke:#A80036;stroke-width:1.0;"/><path d="M74.7031,163.1719 C75.75,163.1719 76.7656,162.9844 77.75,162.5938 L77.3594,160.5781 C76.5781,160.9063 75.8125,161.0781 74.9844,161.0781 C72.5938,161.0781 71.375,159.7188 71.375,157 C71.375,154.5469 72.625,153.1406 74.5313,153.1406 C75.4219,153.1406 76.2344,153.5 76.7188,154.1094 L77.9531,152.5 C77.3281,151.5625 76.0781,151.0469 74.5156,151.0469 C71.0469,151.0469 69.0781,153.25 69.0781,157.0938 C69.0781,161.1406 70.9688,163.1719 74.7031,163.1719 Z " fill="#000000"/><text fill="#000000" font-family="sans-serif" font-size="12" lengthAdjust="spacing" textLength="55" x="88.5" y="161.1543">Manzana</text><line style="stroke:#A80036;stroke-width:1.5;" x1="60.5" x2="145.5" y1="173" y2="173"/><line style="stroke:#A80036;stroke-width:1.5;" x1="60.5" x2="145.5" y1="181" y2="181"/><!--MD5=[1508bf63183502ad5201ded5f8c5cf37]
class Pera--><rect fill="#FEFECE" filter="url(#f1nrchg55bfejb)" height="48" id="Pera" style="stroke:#A80036;stroke-width:1.5;" width="61" x="181.5" y="141"/><ellipse cx="196.5" cy="157" fill="#ADD1B2" rx="11" ry="11" style="stroke:#A80036;stroke-width:1.0;"/><path d="M196.7031,163.1719 C197.75,163.1719 198.7656,162.9844 199.75,162.5938 L199.3594,160.5781 C198.5781,160.9063 197.8125,161.0781 196.9844,161.0781 C194.5938,161.0781 193.375,159.7188 193.375,157 C193.375,154.5469 194.625,153.1406 196.5313,153.1406 C197.4219,153.1406 198.2344,153.5 198.7188,154.1094 L199.9531,152.5 C199.3281,151.5625 198.0781,151.0469 196.5156,151.0469 C193.0469,151.0469 191.0781,153.25 191.0781,157.0938 C191.0781,161.1406 192.9688,163.1719 196.7031,163.1719 Z " fill="#000000"/><text fill="#000000" font-family="sans-serif" font-size="12" lengthAdjust="spacing" textLength="29" x="210.5" y="161.1543">Pera</text><line style="stroke:#A80036;stroke-width:1.5;" x1="182.5" x2="241.5" y1="173" y2="173"/><line style="stroke:#A80036;stroke-width:1.5;" x1="182.5" x2="241.5" y1="181" y2="181"/><!--MD5=[6713ca452e1b73d9b4e011ef9f2420d3]
class Golden--><rect fill="#FEFECE" filter="url(#f1nrchg55bfejb)" height="48" id="Golden" style="stroke:#A80036;stroke-width:1.5;" width="76" x="7" y="249"/><ellipse cx="22" cy="265" fill="#ADD1B2" rx="11" ry="11" style="stroke:#A80036;stroke-width:1.0;"/><path d="M22.2031,271.1719 C23.25,271.1719 24.2656,270.9844 25.25,270.5938 L24.8594,268.5781 C24.0781,268.9063 23.3125,269.0781 22.4844,269.0781 C20.0938,269.0781 18.875,267.7188 18.875,265 C18.875,262.5469 20.125,261.1406 22.0313,261.1406 C22.9219,261.1406 23.7344,261.5 24.2188,262.1094 L25.4531,260.5 C24.8281,259.5625 23.5781,259.0469 22.0156,259.0469 C18.5469,259.0469 16.5781,261.25 16.5781,265.0938 C16.5781,269.1406 18.4688,271.1719 22.2031,271.1719 Z " fill="#000000"/><text fill="#000000" font-family="sans-serif" font-size="12" lengthAdjust="spacing" textLength="44" x="36" y="269.1543">Golden</text><line style="stroke:#A80036;stroke-width:1.5;" x1="8" x2="82" y1="281" y2="281"/><line style="stroke:#A80036;stroke-width:1.5;" x1="8" x2="82" y1="289" y2="289"/><!--MD5=[b382c621d7e414247e2ba32cfea47feb]
class PinkLady--><rect fill="#FEFECE" filter="url(#f1nrchg55bfejb)" height="48" id="PinkLady" style="stroke:#A80036;stroke-width:1.5;" width="86" x="118" y="249"/><ellipse cx="133" cy="265" fill="#ADD1B2" rx="11" ry="11" style="stroke:#A80036;stroke-width:1.0;"/><path d="M133.2031,271.1719 C134.25,271.1719 135.2656,270.9844 136.25,270.5938 L135.8594,268.5781 C135.0781,268.9063 134.3125,269.0781 133.4844,269.0781 C131.0938,269.0781 129.875,267.7188 129.875,265 C129.875,262.5469 131.125,261.1406 133.0313,261.1406 C133.9219,261.1406 134.7344,261.5 135.2188,262.1094 L136.4531,260.5 C135.8281,259.5625 134.5781,259.0469 133.0156,259.0469 C129.5469,259.0469 127.5781,261.25 127.5781,265.0938 C127.5781,269.1406 129.4688,271.1719 133.2031,271.1719 Z " fill="#000000"/><text fill="#000000" font-family="sans-serif" font-size="12" lengthAdjust="spacing" textLength="54" x="147" y="269.1543">PinkLady</text><line style="stroke:#A80036;stroke-width:1.5;" x1="119" x2="203" y1="281" y2="281"/><line style="stroke:#A80036;stroke-width:1.5;" x1="119" x2="203" y1="289" y2="289"/><!--MD5=[bcd85ef2a3bef1409025fd08fdc954d2]
reverse link Fruta to Manzana--><path codeLine="6" d="M132.22,99.6 C125.63,114.12 118.87,129.04 113.5,140.85 " fill="none" id="Fruta-backto-Manzana" style="stroke:#A80036;stroke-width:1.0;"/><polygon fill="none" points="126.01,96.35,140.65,81.03,138.76,102.13,126.01,96.35" style="stroke:#A80036;stroke-width:1.0;"/><!--MD5=[b9224d04003462a4d489fd8f39a8b3f8]
reverse link Fruta to Pera--><path codeLine="7" d="M182.23,99.6 C188.95,114.12 195.84,129.04 201.3,140.85 " fill="none" id="Fruta-backto-Pera" style="stroke:#A80036;stroke-width:1.0;"/><polygon fill="none" points="175.69,102.12,173.65,81.03,188.4,96.24,175.69,102.12" style="stroke:#A80036;stroke-width:1.0;"/><!--MD5=[a39614a96946516b7c90e96ee034d8e4]
reverse link Manzana to Golden--><path codeLine="9" d="M80.78,206.61 C72.99,220.85 64.51,236.35 57.76,248.68 " fill="none" id="Manzana-backto-Golden" style="stroke:#A80036;stroke-width:1.0;"/><polygon fill="none" points="74.67,203.19,90.41,189,86.96,209.91,74.67,203.19" style="stroke:#A80036;stroke-width:1.0;"/><!--MD5=[18e3f184e009a8c76f8f9b2381bef4ee]
reverse link Manzana to PinkLady--><path codeLine="10" d="M125.22,206.61 C133.01,220.85 141.49,236.35 148.24,248.68 " fill="none" id="Manzana-backto-PinkLady" style="stroke:#A80036;stroke-width:1.0;"/><polygon fill="none" points="119.04,209.91,115.59,189,131.33,203.19,119.04,209.91" style="stroke:#A80036;stroke-width:1.0;"/><!--MD5=[53d61c36b7d32f2dcd9ffda62b13cad9]
@startuml Herencia
class Fruta {
    int tamaño
    void comer()
}

Fruta <|- - Manzana
Fruta <|- - Pera

Manzana <|- - Golden
Manzana <|- - PinkLady
@enduml

PlantUML version 1.2021.00(Sun Jan 10 11:25:05 CET 2021)
(LGPL source distribution)
Java Runtime: OpenJDK Runtime Environment
JVM: OpenJDK 64-Bit Server VM
Default Encoding: UTF-8
Language: es
Country: ES
--></g></svg>