<?xml version="1.0" encoding="UTF-8" standalone="no"?><svg xmlns="http://www.w3.org/2000/svg" xmlns:xlink="http://www.w3.org/1999/xlink" contentScriptType="application/ecmascript" contentStyleType="text/css" height="348px" preserveAspectRatio="none" style="width:228px;height:348px;" version="1.1" viewBox="0 0 228 348" width="228px" zoomAndPan="magnify"><defs><filter height="300%" id="fz6jl0txnpxck" width="300%" x="-1" y="-1"><feGaussianBlur result="blurOut" stdDeviation="2.0"/><feColorMatrix in="blurOut" result="blurOut2" type="matrix" values="0 0 0 0 0 0 0 0 0 0 0 0 0 0 0 0 0 0 .4 0"/><feOffset dx="4.0" dy="4.0" in="blurOut2" result="blurOut3"/><feBlend in="SourceGraphic" in2="blurOut3" mode="normal"/></filter></defs><g><!--MD5=[be996cdb8e6bf2fc7cb89c555f2cd144]
class Entity--><rect fill="#FEFECE" filter="url(#fz6jl0txnpxck)" height="32" id="Entity" style="stroke:#A80036;stroke-width:1.5;" width="67" x="91.5" y="7"/><ellipse cx="106.5" cy="23" fill="#ADD1B2" rx="11" ry="11" style="stroke:#A80036;stroke-width:1.0;"/><path d="M106.7031,29.1719 C107.75,29.1719 108.7656,28.9844 109.75,28.5938 L109.3594,26.5781 C108.5781,26.9063 107.8125,27.0781 106.9844,27.0781 C104.5938,27.0781 103.375,25.7188 103.375,23 C103.375,20.5469 104.625,19.1406 106.5313,19.1406 C107.4219,19.1406 108.2344,19.5 108.7188,20.1094 L109.9531,18.5 C109.3281,17.5625 108.0781,17.0469 106.5156,17.0469 C103.0469,17.0469 101.0781,19.25 101.0781,23.0938 C101.0781,27.1406 102.9688,29.1719 106.7031,29.1719 Z " fill="#000000"/><text fill="#000000" font-family="sans-serif" font-size="12" lengthAdjust="spacing" textLength="35" x="120.5" y="27.1543">Entity</text><!--MD5=[cbc984a6a6086109243884c87806a70e]
class Movable--><rect fill="#FEFECE" filter="url(#fz6jl0txnpxck)" height="32" id="Movable" style="stroke:#A80036;stroke-width:1.5;" width="83" x="36.5" y="100"/><ellipse cx="51.5" cy="116" fill="#ADD1B2" rx="11" ry="11" style="stroke:#A80036;stroke-width:1.0;"/><path d="M51.7031,122.1719 C52.75,122.1719 53.7656,121.9844 54.75,121.5938 L54.3594,119.5781 C53.5781,119.9063 52.8125,120.0781 51.9844,120.0781 C49.5938,120.0781 48.375,118.7188 48.375,116 C48.375,113.5469 49.625,112.1406 51.5313,112.1406 C52.4219,112.1406 53.2344,112.5 53.7188,113.1094 L54.9531,111.5 C54.3281,110.5625 53.0781,110.0469 51.5156,110.0469 C48.0469,110.0469 46.0781,112.25 46.0781,116.0938 C46.0781,120.1406 47.9688,122.1719 51.7031,122.1719 Z " fill="#000000"/><text fill="#000000" font-family="sans-serif" font-size="12" lengthAdjust="spacing" textLength="51" x="65.5" y="120.1543">Movable</text><!--MD5=[35fa7ce99f1adf91ef35d4c75e6a0d1c]
class Visible--><rect fill="#FEFECE" filter="url(#fz6jl0txnpxck)" height="32" id="Visible" style="stroke:#A80036;stroke-width:1.5;" width="72" x="7" y="209"/><ellipse cx="22" cy="225" fill="#ADD1B2" rx="11" ry="11" style="stroke:#A80036;stroke-width:1.0;"/><path d="M22.2031,231.1719 C23.25,231.1719 24.2656,230.9844 25.25,230.5938 L24.8594,228.5781 C24.0781,228.9063 23.3125,229.0781 22.4844,229.0781 C20.0938,229.0781 18.875,227.7188 18.875,225 C18.875,222.5469 20.125,221.1406 22.0313,221.1406 C22.9219,221.1406 23.7344,221.5 24.2188,222.1094 L25.4531,220.5 C24.8281,219.5625 23.5781,219.0469 22.0156,219.0469 C18.5469,219.0469 16.5781,221.25 16.5781,225.0938 C16.5781,229.1406 18.4688,231.1719 22.2031,231.1719 Z " fill="#000000"/><text fill="#000000" font-family="sans-serif" font-size="12" lengthAdjust="spacing" textLength="40" x="36" y="229.1543">Visible</text><!--MD5=[2cb47ba637a0d19583e6199456f6ad0b]
class Player--><rect fill="#FEFECE" filter="url(#fz6jl0txnpxck)" height="32" id="Player" style="stroke:#A80036;stroke-width:1.5;" width="70" x="68" y="302"/><ellipse cx="83" cy="318" fill="#ADD1B2" rx="11" ry="11" style="stroke:#A80036;stroke-width:1.0;"/><path d="M83.2031,324.1719 C84.25,324.1719 85.2656,323.9844 86.25,323.5938 L85.8594,321.5781 C85.0781,321.9063 84.3125,322.0781 83.4844,322.0781 C81.0938,322.0781 79.875,320.7188 79.875,318 C79.875,315.5469 81.125,314.1406 83.0313,314.1406 C83.9219,314.1406 84.7344,314.5 85.2188,315.1094 L86.4531,313.5 C85.8281,312.5625 84.5781,312.0469 83.0156,312.0469 C79.5469,312.0469 77.5781,314.25 77.5781,318.0938 C77.5781,322.1406 79.4688,324.1719 83.2031,324.1719 Z " fill="#000000"/><text fill="#000000" font-family="sans-serif" font-size="12" lengthAdjust="spacing" textLength="38" x="97" y="322.1543">Player</text><!--MD5=[d40c32ef1bef2a38eff78b9fac40bbc6]
class NoMovable--><rect fill="#FEFECE" filter="url(#fz6jl0txnpxck)" height="32" id="NoMovable" style="stroke:#A80036;stroke-width:1.5;" width="100" x="114" y="209"/><ellipse cx="129" cy="225" fill="#ADD1B2" rx="11" ry="11" style="stroke:#A80036;stroke-width:1.0;"/><path d="M129.2031,231.1719 C130.25,231.1719 131.2656,230.9844 132.25,230.5938 L131.8594,228.5781 C131.0781,228.9063 130.3125,229.0781 129.4844,229.0781 C127.0938,229.0781 125.875,227.7188 125.875,225 C125.875,222.5469 127.125,221.1406 129.0313,221.1406 C129.9219,221.1406 130.7344,221.5 131.2188,222.1094 L132.4531,220.5 C131.8281,219.5625 130.5781,219.0469 129.0156,219.0469 C125.5469,219.0469 123.5781,221.25 123.5781,225.0938 C123.5781,229.1406 125.4688,231.1719 129.2031,231.1719 Z " fill="#000000"/><text fill="#000000" font-family="sans-serif" font-size="12" lengthAdjust="spacing" textLength="68" x="143" y="229.1543">NoMovable</text><!--MD5=[5b8eaa92dd224dc8459d82dba34df021]
reverse link Entity to Movable--><path codeLine="1" d="M107.84,57.23 C100.27,71.88 91.76,88.35 85.77,99.95 " fill="none" id="Entity-backto-Movable" style="stroke:#A80036;stroke-width:1.0;"/><polygon fill="none" points="101.84,53.58,117.24,39.03,114.28,60.01,101.84,53.58" style="stroke:#A80036;stroke-width:1.0;"/><!--MD5=[26afc2aeaa9b22f65758e6f255594cf4]
reverse link Movable to Visible--><path codeLine="2" d="M66.71,151.52 C60.4,170.8 52.86,193.85 48.01,208.7 " fill="none" id="Movable-backto-Visible" style="stroke:#A80036;stroke-width:1.0;"/><polygon fill="none" points="60.11,149.16,72.99,132.33,73.42,153.52,60.11,149.16" style="stroke:#A80036;stroke-width:1.0;"/><!--MD5=[489215d9c830386786861197af447043]
reverse link Visible to Player--><path codeLine="3" d="M63.93,257.74 C73.82,272.75 85.17,289.96 93.08,301.95 " fill="none" id="Visible-backto-Player" style="stroke:#A80036;stroke-width:1.0;"/><polygon fill="none" points="58.07,261.58,52.91,241.03,69.76,253.87,58.07,261.58" style="stroke:#A80036;stroke-width:1.0;"/><!--MD5=[5757f323eecd90ca1e44263ec6c75f91]
reverse link Entity to NoMovable--><path codeLine="4" d="M131.77,58.71 C140.37,102.81 154.84,177 161.03,208.79 " fill="none" id="Entity-backto-NoMovable" style="stroke:#A80036;stroke-width:1.0;"/><polygon fill="none" points="124.89,60,127.93,39.03,138.63,57.32,124.89,60" style="stroke:#A80036;stroke-width:1.0;"/><!--MD5=[af91887629caa025fa10e8516394ded2]
reverse link NoMovable to Player--><path codeLine="5" d="M142.72,257.74 C132.66,272.75 121.13,289.96 113.09,301.95 " fill="none" id="NoMovable-backto-Player" style="stroke:#A80036;stroke-width:1.0;"/><polygon fill="none" points="136.98,253.74,153.93,241.03,148.61,261.54,136.98,253.74" style="stroke:#A80036;stroke-width:1.0;"/><!--MD5=[c99717c02f416564d99c8962fe0bde1e]
link Movable to NoMovable--><path codeLine="6" d="M80.99,136.99 C83.72,149.97 88.79,166.69 98,179 C106.14,189.88 117.72,199.03 128.91,206.17 " fill="none" id="Movable-NoMovable" style="stroke:#A80036;stroke-width:1.0;"/><polygon fill="#A80036" points="133.34,208.91,127.7836,200.7782,129.0856,206.2831,123.5807,207.5852,133.34,208.91" style="stroke:#A80036;stroke-width:1.0;"/><polygon fill="#A80036" points="80.03,132.04,77.8296,141.6399,80.9886,136.9473,85.6812,140.1062,80.03,132.04" style="stroke:#A80036;stroke-width:1.0;"/><text fill="#000000" font-family="sans-serif" font-size="13" lengthAdjust="spacing" textLength="47" x="99" y="175.0669">ERROR!</text><!--MD5=[d15b063c33a46525a0e74c2f108843a2]
@startuml
Entity <|- - Movable
Movable<|- - Visible 
Visible<|- - Player
Entity <|- - NoMovable
NoMovable<|- - Player
Movable <- -> NoMovable : ERROR!
hide members
@enduml

PlantUML version 1.2021.00(Sun Jan 10 11:25:05 CET 2021)
(LGPL source distribution)
Java Runtime: OpenJDK Runtime Environment
JVM: OpenJDK 64-Bit Server VM
Default Encoding: UTF-8
Language: es
Country: ES
--></g></svg>