<?xml version="1.0" encoding="UTF-8" standalone="no"?><svg xmlns="http://www.w3.org/2000/svg" xmlns:xlink="http://www.w3.org/1999/xlink" contentScriptType="application/ecmascript" contentStyleType="text/css" height="406px" preserveAspectRatio="none" style="width:256px;height:406px;" version="1.1" viewBox="0 0 256 406" width="256px" zoomAndPan="magnify"><defs><filter height="300%" id="f1sqrlysgt7g2b" width="300%" x="-1" y="-1"><feGaussianBlur result="blurOut" stdDeviation="2.0"/><feColorMatrix in="blurOut" result="blurOut2" type="matrix" values="0 0 0 0 0 0 0 0 0 0 0 0 0 0 0 0 0 0 .4 0"/><feOffset dx="4.0" dy="4.0" in="blurOut2" result="blurOut3"/><feBlend in="SourceGraphic" in2="blurOut3" mode="normal"/></filter></defs><g><!--MD5=[5fecf7a560310301be6a50ad973ce2a9]
class EsComible--><rect codeLine="1" fill="#FEFECE" filter="url(#f1sqrlysgt7g2b)" height="60.8047" id="EsComible" style="stroke:#A80036;stroke-width:1.5;" width="96" x="109" y="7"/><ellipse cx="124" cy="23" fill="#ADD1B2" rx="11" ry="11" style="stroke:#A80036;stroke-width:1.0;"/><path d="M124.2031,29.1719 C125.25,29.1719 126.2656,28.9844 127.25,28.5938 L126.8594,26.5781 C126.0781,26.9063 125.3125,27.0781 124.4844,27.0781 C122.0938,27.0781 120.875,25.7188 120.875,23 C120.875,20.5469 122.125,19.1406 124.0313,19.1406 C124.9219,19.1406 125.7344,19.5 126.2188,20.1094 L127.4531,18.5 C126.8281,17.5625 125.5781,17.0469 124.0156,17.0469 C120.5469,17.0469 118.5781,19.25 118.5781,23.0938 C118.5781,27.1406 120.4688,29.1719 124.2031,29.1719 Z " fill="#000000"/><text fill="#000000" font-family="sans-serif" font-size="12" lengthAdjust="spacing" textLength="64" x="138" y="27.1543">EsComible</text><line style="stroke:#A80036;stroke-width:1.5;" x1="110" x2="204" y1="39" y2="39"/><line style="stroke:#A80036;stroke-width:1.5;" x1="110" x2="204" y1="47" y2="47"/><text fill="#000000" font-family="sans-serif" font-size="11" lengthAdjust="spacing" textLength="71" x="115" y="61.2104">void comer()</text><!--MD5=[1cb3dca014c9afc5465c20d03b3a6575]
class Fruta--><rect fill="#FEFECE" filter="url(#f1sqrlysgt7g2b)" height="48" id="Fruta" style="stroke:#A80036;stroke-width:1.5;" width="65" x="124.5" y="128"/><ellipse cx="139.5" cy="144" fill="#ADD1B2" rx="11" ry="11" style="stroke:#A80036;stroke-width:1.0;"/><path d="M139.7031,150.1719 C140.75,150.1719 141.7656,149.9844 142.75,149.5938 L142.3594,147.5781 C141.5781,147.9063 140.8125,148.0781 139.9844,148.0781 C137.5938,148.0781 136.375,146.7188 136.375,144 C136.375,141.5469 137.625,140.1406 139.5313,140.1406 C140.4219,140.1406 141.2344,140.5 141.7188,141.1094 L142.9531,139.5 C142.3281,138.5625 141.0781,138.0469 139.5156,138.0469 C136.0469,138.0469 134.0781,140.25 134.0781,144.0938 C134.0781,148.1406 135.9688,150.1719 139.7031,150.1719 Z " fill="#000000"/><text fill="#000000" font-family="sans-serif" font-size="12" lengthAdjust="spacing" textLength="33" x="153.5" y="148.1543">Fruta</text><line style="stroke:#A80036;stroke-width:1.5;" x1="125.5" x2="188.5" y1="160" y2="160"/><line style="stroke:#A80036;stroke-width:1.5;" x1="125.5" x2="188.5" y1="168" y2="168"/><!--MD5=[bb464e4caa4f7f005857ca9509a61a47]
class Manzana--><rect fill="#FEFECE" filter="url(#f1sqrlysgt7g2b)" height="48" id="Manzana" style="stroke:#A80036;stroke-width:1.5;" width="87" x="59.5" y="236"/><ellipse cx="74.5" cy="252" fill="#ADD1B2" rx="11" ry="11" style="stroke:#A80036;stroke-width:1.0;"/><path d="M74.7031,258.1719 C75.75,258.1719 76.7656,257.9844 77.75,257.5938 L77.3594,255.5781 C76.5781,255.9063 75.8125,256.0781 74.9844,256.0781 C72.5938,256.0781 71.375,254.7188 71.375,252 C71.375,249.5469 72.625,248.1406 74.5313,248.1406 C75.4219,248.1406 76.2344,248.5 76.7188,249.1094 L77.9531,247.5 C77.3281,246.5625 76.0781,246.0469 74.5156,246.0469 C71.0469,246.0469 69.0781,248.25 69.0781,252.0938 C69.0781,256.1406 70.9688,258.1719 74.7031,258.1719 Z " fill="#000000"/><text fill="#000000" font-family="sans-serif" font-size="12" lengthAdjust="spacing" textLength="55" x="88.5" y="256.1543">Manzana</text><line style="stroke:#A80036;stroke-width:1.5;" x1="60.5" x2="145.5" y1="268" y2="268"/><line style="stroke:#A80036;stroke-width:1.5;" x1="60.5" x2="145.5" y1="276" y2="276"/><!--MD5=[1508bf63183502ad5201ded5f8c5cf37]
class Pera--><rect fill="#FEFECE" filter="url(#f1sqrlysgt7g2b)" height="48" id="Pera" style="stroke:#A80036;stroke-width:1.5;" width="61" x="181.5" y="236"/><ellipse cx="196.5" cy="252" fill="#ADD1B2" rx="11" ry="11" style="stroke:#A80036;stroke-width:1.0;"/><path d="M196.7031,258.1719 C197.75,258.1719 198.7656,257.9844 199.75,257.5938 L199.3594,255.5781 C198.5781,255.9063 197.8125,256.0781 196.9844,256.0781 C194.5938,256.0781 193.375,254.7188 193.375,252 C193.375,249.5469 194.625,248.1406 196.5313,248.1406 C197.4219,248.1406 198.2344,248.5 198.7188,249.1094 L199.9531,247.5 C199.3281,246.5625 198.0781,246.0469 196.5156,246.0469 C193.0469,246.0469 191.0781,248.25 191.0781,252.0938 C191.0781,256.1406 192.9688,258.1719 196.7031,258.1719 Z " fill="#000000"/><text fill="#000000" font-family="sans-serif" font-size="12" lengthAdjust="spacing" textLength="29" x="210.5" y="256.1543">Pera</text><line style="stroke:#A80036;stroke-width:1.5;" x1="182.5" x2="241.5" y1="268" y2="268"/><line style="stroke:#A80036;stroke-width:1.5;" x1="182.5" x2="241.5" y1="276" y2="276"/><!--MD5=[6713ca452e1b73d9b4e011ef9f2420d3]
class Golden--><rect fill="#FEFECE" filter="url(#f1sqrlysgt7g2b)" height="48" id="Golden" style="stroke:#A80036;stroke-width:1.5;" width="76" x="7" y="344"/><ellipse cx="22" cy="360" fill="#ADD1B2" rx="11" ry="11" style="stroke:#A80036;stroke-width:1.0;"/><path d="M22.2031,366.1719 C23.25,366.1719 24.2656,365.9844 25.25,365.5938 L24.8594,363.5781 C24.0781,363.9063 23.3125,364.0781 22.4844,364.0781 C20.0938,364.0781 18.875,362.7188 18.875,360 C18.875,357.5469 20.125,356.1406 22.0313,356.1406 C22.9219,356.1406 23.7344,356.5 24.2188,357.1094 L25.4531,355.5 C24.8281,354.5625 23.5781,354.0469 22.0156,354.0469 C18.5469,354.0469 16.5781,356.25 16.5781,360.0938 C16.5781,364.1406 18.4688,366.1719 22.2031,366.1719 Z " fill="#000000"/><text fill="#000000" font-family="sans-serif" font-size="12" lengthAdjust="spacing" textLength="44" x="36" y="364.1543">Golden</text><line style="stroke:#A80036;stroke-width:1.5;" x1="8" x2="82" y1="376" y2="376"/><line style="stroke:#A80036;stroke-width:1.5;" x1="8" x2="82" y1="384" y2="384"/><!--MD5=[b382c621d7e414247e2ba32cfea47feb]
class PinkLady--><rect fill="#FEFECE" filter="url(#f1sqrlysgt7g2b)" height="48" id="PinkLady" style="stroke:#A80036;stroke-width:1.5;" width="86" x="118" y="344"/><ellipse cx="133" cy="360" fill="#ADD1B2" rx="11" ry="11" style="stroke:#A80036;stroke-width:1.0;"/><path d="M133.2031,366.1719 C134.25,366.1719 135.2656,365.9844 136.25,365.5938 L135.8594,363.5781 C135.0781,363.9063 134.3125,364.0781 133.4844,364.0781 C131.0938,364.0781 129.875,362.7188 129.875,360 C129.875,357.5469 131.125,356.1406 133.0313,356.1406 C133.9219,356.1406 134.7344,356.5 135.2188,357.1094 L136.4531,355.5 C135.8281,354.5625 134.5781,354.0469 133.0156,354.0469 C129.5469,354.0469 127.5781,356.25 127.5781,360.0938 C127.5781,364.1406 129.4688,366.1719 133.2031,366.1719 Z " fill="#000000"/><text fill="#000000" font-family="sans-serif" font-size="12" lengthAdjust="spacing" textLength="54" x="147" y="364.1543">PinkLady</text><line style="stroke:#A80036;stroke-width:1.5;" x1="119" x2="203" y1="376" y2="376"/><line style="stroke:#A80036;stroke-width:1.5;" x1="119" x2="203" y1="384" y2="384"/><!--MD5=[bcd85ef2a3bef1409025fd08fdc954d2]
reverse link Fruta to Manzana--><path codeLine="5" d="M136.07,194.09 C128.88,208.2 121.09,223.48 114.88,235.68 " fill="none" id="Fruta-backto-Manzana" style="stroke:#A80036;stroke-width:1.0;"/><polygon fill="none" points="129.97,190.64,145.28,176,142.44,197,129.97,190.64" style="stroke:#A80036;stroke-width:1.0;"/><!--MD5=[b9224d04003462a4d489fd8f39a8b3f8]
reverse link Fruta to Pera--><path codeLine="6" d="M178.32,194.09 C185.64,208.2 193.57,223.48 199.9,235.68 " fill="none" id="Fruta-backto-Pera" style="stroke:#A80036;stroke-width:1.0;"/><polygon fill="none" points="171.93,196.98,168.93,176,184.36,190.53,171.93,196.98" style="stroke:#A80036;stroke-width:1.0;"/><!--MD5=[1a9bf5fdb8dc62dbc961c5b8a4e48908]
reverse link EsComible to Fruta--><path codeLine="8" d="M157,88.11 C157,101.88 157,116.18 157,127.67 " fill="none" id="EsComible-backto-Fruta" style="stroke:#A80036;stroke-width:1.0;stroke-dasharray:7.0,7.0;"/><polygon fill="none" points="150,88.06,157,68.06,164,88.06,150,88.06" style="stroke:#A80036;stroke-width:1.0;"/><!--MD5=[a39614a96946516b7c90e96ee034d8e4]
reverse link Manzana to Golden--><path codeLine="11" d="M80.78,301.61 C72.99,315.85 64.51,331.35 57.76,343.68 " fill="none" id="Manzana-backto-Golden" style="stroke:#A80036;stroke-width:1.0;"/><polygon fill="none" points="74.67,298.19,90.41,284,86.96,304.91,74.67,298.19" style="stroke:#A80036;stroke-width:1.0;"/><!--MD5=[18e3f184e009a8c76f8f9b2381bef4ee]
reverse link Manzana to PinkLady--><path codeLine="12" d="M125.22,301.61 C133.01,315.85 141.49,331.35 148.24,343.68 " fill="none" id="Manzana-backto-PinkLady" style="stroke:#A80036;stroke-width:1.0;"/><polygon fill="none" points="119.04,304.91,115.59,284,131.33,298.19,119.04,304.91" style="stroke:#A80036;stroke-width:1.0;"/><!--MD5=[6ce29e73d78def343e4150e7e7d12667]
@startuml Herencia
class EsComible {
    void comer()
}

Fruta <|- - Manzana
Fruta <|- - Pera

EsComible <|.. Fruta


Manzana <|- - Golden
Manzana <|- - PinkLady
@enduml

PlantUML version 1.2021.00(Sun Jan 10 11:25:05 CET 2021)
(LGPL source distribution)
Java Runtime: OpenJDK Runtime Environment
JVM: OpenJDK 64-Bit Server VM
Default Encoding: UTF-8
Language: es
Country: ES
--></g></svg>