<?xml version="1.0" encoding="UTF-8" standalone="no"?><svg xmlns="http://www.w3.org/2000/svg" xmlns:xlink="http://www.w3.org/1999/xlink" contentScriptType="application/ecmascript" contentStyleType="text/css" height="94px" preserveAspectRatio="none" style="width:104px;height:94px;" version="1.1" viewBox="0 0 104 94" width="104px" zoomAndPan="magnify"><defs><filter height="300%" id="f1p3n8i4dydgkl" width="300%" x="-1" y="-1"><feGaussianBlur result="blurOut" stdDeviation="2.0"/><feColorMatrix in="blurOut" result="blurOut2" type="matrix" values="0 0 0 0 0 0 0 0 0 0 0 0 0 0 0 0 0 0 .4 0"/><feOffset dx="4.0" dy="4.0" in="blurOut2" result="blurOut3"/><feBlend in="SourceGraphic" in2="blurOut3" mode="normal"/></filter></defs><g><!--MD5=[1cb3dca014c9afc5465c20d03b3a6575]
class Fruta--><rect codeLine="1" fill="#FEFECE" filter="url(#f1p3n8i4dydgkl)" height="73.6094" id="Fruta" style="stroke:#A80036;stroke-width:1.5;" width="83" x="7" y="7"/><ellipse cx="30.1" cy="23" fill="#ADD1B2" rx="11" ry="11" style="stroke:#A80036;stroke-width:1.0;"/><path d="M30.3031,29.1719 C31.35,29.1719 32.3656,28.9844 33.35,28.5938 L32.9594,26.5781 C32.1781,26.9063 31.4125,27.0781 30.5844,27.0781 C28.1938,27.0781 26.975,25.7188 26.975,23 C26.975,20.5469 28.225,19.1406 30.1313,19.1406 C31.0219,19.1406 31.8344,19.5 32.3188,20.1094 L33.5531,18.5 C32.9281,17.5625 31.6781,17.0469 30.1156,17.0469 C26.6469,17.0469 24.6781,19.25 24.6781,23.0938 C24.6781,27.1406 26.5688,29.1719 30.3031,29.1719 Z " fill="#000000"/><text fill="#000000" font-family="sans-serif" font-size="12" lengthAdjust="spacing" textLength="33" x="45.9" y="27.1543">Fruta</text><line style="stroke:#A80036;stroke-width:1.5;" x1="8" x2="89" y1="39" y2="39"/><text fill="#000000" font-family="sans-serif" font-size="11" lengthAdjust="spacing" textLength="61" x="13" y="53.2104">int tamaño</text><line style="stroke:#A80036;stroke-width:1.5;" x1="8" x2="89" y1="59.8047" y2="59.8047"/><text fill="#000000" font-family="sans-serif" font-size="11" lengthAdjust="spacing" textLength="71" x="13" y="74.0151">void comer()</text><!--MD5=[ff0d249559e497db16ca4817dc2b78a4]
@startuml
class Fruta {
    int tamaño
    void comer()
}
@enduml

PlantUML version 1.2021.00(Sun Jan 10 11:25:05 CET 2021)
(LGPL source distribution)
Java Runtime: OpenJDK Runtime Environment
JVM: OpenJDK 64-Bit Server VM
Default Encoding: UTF-8
Language: es
Country: ES
--></g></svg>