<?xml version="1.0" encoding="UTF-8" standalone="no"?><svg xmlns="http://www.w3.org/2000/svg" xmlns:xlink="http://www.w3.org/1999/xlink" contentScriptType="application/ecmascript" contentStyleType="text/css" height="281px" preserveAspectRatio="none" style="width:135px;height:281px;" version="1.1" viewBox="0 0 135 281" width="135px" zoomAndPan="magnify"><defs><filter height="300%" id="fu7ngzw1cbq9r" width="300%" x="-1" y="-1"><feGaussianBlur result="blurOut" stdDeviation="2.0"/><feColorMatrix in="blurOut" result="blurOut2" type="matrix" values="0 0 0 0 0 0 0 0 0 0 0 0 0 0 0 0 0 0 .4 0"/><feOffset dx="4.0" dy="4.0" in="blurOut2" result="blurOut3"/><feBlend in="SourceGraphic" in2="blurOut3" mode="normal"/></filter></defs><g><!--MD5=[aa7f586532e18719e6cefa70fc650583]
class Object--><rect fill="#FEFECE" filter="url(#fu7ngzw1cbq9r)" height="32" id="Object" style="stroke:#A80036;stroke-width:1.5;" width="72" x="28" y="7"/><ellipse cx="43" cy="23" fill="#ADD1B2" rx="11" ry="11" style="stroke:#A80036;stroke-width:1.0;"/><path d="M43.2031,29.1719 C44.25,29.1719 45.2656,28.9844 46.25,28.5938 L45.8594,26.5781 C45.0781,26.9063 44.3125,27.0781 43.4844,27.0781 C41.0938,27.0781 39.875,25.7188 39.875,23 C39.875,20.5469 41.125,19.1406 43.0313,19.1406 C43.9219,19.1406 44.7344,19.5 45.2188,20.1094 L46.4531,18.5 C45.8281,17.5625 44.5781,17.0469 43.0156,17.0469 C39.5469,17.0469 37.5781,19.25 37.5781,23.0938 C37.5781,27.1406 39.4688,29.1719 43.2031,29.1719 Z " fill="#000000"/><text fill="#000000" font-family="sans-serif" font-size="12" lengthAdjust="spacing" textLength="40" x="57" y="27.1543">Object</text><!--MD5=[53a1db06a8ddb586c04aec032f1cb7b6]
class Sword--><rect fill="#FEFECE" filter="url(#fu7ngzw1cbq9r)" height="32" id="Sword" style="stroke:#A80036;stroke-width:1.5;" width="70" x="29" y="100"/><ellipse cx="44" cy="116" fill="#ADD1B2" rx="11" ry="11" style="stroke:#A80036;stroke-width:1.0;"/><path d="M44.2031,122.1719 C45.25,122.1719 46.2656,121.9844 47.25,121.5938 L46.8594,119.5781 C46.0781,119.9063 45.3125,120.0781 44.4844,120.0781 C42.0938,120.0781 40.875,118.7188 40.875,116 C40.875,113.5469 42.125,112.1406 44.0313,112.1406 C44.9219,112.1406 45.7344,112.5 46.2188,113.1094 L47.4531,111.5 C46.8281,110.5625 45.5781,110.0469 44.0156,110.0469 C40.5469,110.0469 38.5781,112.25 38.5781,116.0938 C38.5781,120.1406 40.4688,122.1719 44.2031,122.1719 Z " fill="#000000"/><text fill="#000000" font-family="sans-serif" font-size="12" lengthAdjust="spacing" textLength="38" x="58" y="120.1543">Sword</text><!--MD5=[f4febecabb2afb1136f859ff08728f31]
class Takeable--><rect codeLine="3" fill="#FEFECE" filter="url(#fu7ngzw1cbq9r)" height="58.7422" id="Takeable" style="stroke:#A80036;stroke-width:1.5;" width="114" x="7" y="209"/><ellipse cx="33.25" cy="227.9688" fill="#ADD1B2" rx="11" ry="11" style="stroke:#A80036;stroke-width:1.0;"/><path d="M33.4531,234.1406 C34.5,234.1406 35.5156,233.9531 36.5,233.5625 L36.1094,231.5469 C35.3281,231.875 34.5625,232.0469 33.7344,232.0469 C31.3438,232.0469 30.125,230.6875 30.125,227.9688 C30.125,225.5156 31.375,224.1094 33.2813,224.1094 C34.1719,224.1094 34.9844,224.4688 35.4688,225.0781 L36.7031,223.4688 C36.0781,222.5313 34.8281,222.0156 33.2656,222.0156 C29.7969,222.0156 27.8281,224.2188 27.8281,228.0625 C27.8281,232.1094 29.7188,234.1406 33.4531,234.1406 Z " fill="#000000"/><text fill="#000000" font-family="sans-serif" font-size="12" font-style="italic" lengthAdjust="spacing" textLength="46" x="55.25" y="225.1387">«mixin»</text><text fill="#000000" font-family="sans-serif" font-size="12" lengthAdjust="spacing" textLength="57" x="49.75" y="239.1074">Takeable</text><line style="stroke:#A80036;stroke-width:1.5;" x1="8" x2="120" y1="246.9375" y2="246.9375"/><ellipse cx="18" cy="257.9375" fill="#84BE84" rx="3" ry="3" style="stroke:#038048;stroke-width:1.0;"/><text fill="#000000" font-family="sans-serif" font-size="11" lengthAdjust="spacing" textLength="88" x="27" y="261.1479">putInInventory()</text><!--MD5=[d595eb0bf37c2aa97fcf96a78955ac35]
reverse link Object to Sword--><path codeLine="2" d="M64,59.24 C64,73.36 64,88.88 64,99.95 " fill="none" id="Object-backto-Sword" style="stroke:#A80036;stroke-width:1.0;"/><polygon fill="none" points="57,59.03,64,39.03,71,59.03,57,59.03" style="stroke:#A80036;stroke-width:1.0;"/><!--MD5=[4366b7c502c393479bed7f11328783b2]
link Sword to Takeable--><path codeLine="6" d="M64,132.26 C64,151.39 64,184.56 64,208.56 " fill="none" id="Sword-Takeable" style="stroke:#A80036;stroke-width:1.0;"/><text fill="#000000" font-family="sans-serif" font-size="13" lengthAdjust="spacing" textLength="41" x="65" y="175.0669">assign</text><!--MD5=[14332f5240c7bc3d1591129bb24c1cd7]
@startuml

Object <|- - Sword
class Takeable <<mixin>> {
    +putInInventory()
}
Sword - - Takeable : assign
hide empty members

@enduml

PlantUML version 1.2021.00(Sun Jan 10 11:25:05 CET 2021)
(LGPL source distribution)
Java Runtime: OpenJDK Runtime Environment
JVM: OpenJDK 64-Bit Server VM
Default Encoding: UTF-8
Language: es
Country: ES
--></g></svg>