<?xml version="1.0" encoding="UTF-8" standalone="no"?><svg xmlns="http://www.w3.org/2000/svg" xmlns:xlink="http://www.w3.org/1999/xlink" contentScriptType="application/ecmascript" contentStyleType="text/css" height="203px" preserveAspectRatio="none" style="width:226px;height:203px;" version="1.1" viewBox="0 0 226 203" width="226px" zoomAndPan="magnify"><defs><filter height="300%" id="f1h551fk1i670u" width="300%" x="-1" y="-1"><feGaussianBlur result="blurOut" stdDeviation="2.0"/><feColorMatrix in="blurOut" result="blurOut2" type="matrix" values="0 0 0 0 0 0 0 0 0 0 0 0 0 0 0 0 0 0 .4 0"/><feOffset dx="4.0" dy="4.0" in="blurOut2" result="blurOut3"/><feBlend in="SourceGraphic" in2="blurOut3" mode="normal"/></filter></defs><g><!--MD5=[1cb3dca014c9afc5465c20d03b3a6575]
class Fruta--><rect codeLine="1" fill="#FEFECE" filter="url(#f1h551fk1i670u)" height="73.6094" id="Fruta" style="stroke:#A80036;stroke-width:1.5;" width="83" x="7" y="7"/><ellipse cx="30.1" cy="23" fill="#ADD1B2" rx="11" ry="11" style="stroke:#A80036;stroke-width:1.0;"/><path d="M30.3031,29.1719 C31.35,29.1719 32.3656,28.9844 33.35,28.5938 L32.9594,26.5781 C32.1781,26.9063 31.4125,27.0781 30.5844,27.0781 C28.1938,27.0781 26.975,25.7188 26.975,23 C26.975,20.5469 28.225,19.1406 30.1313,19.1406 C31.0219,19.1406 31.8344,19.5 32.3188,20.1094 L33.5531,18.5 C32.9281,17.5625 31.6781,17.0469 30.1156,17.0469 C26.6469,17.0469 24.6781,19.25 24.6781,23.0938 C24.6781,27.1406 26.5688,29.1719 30.3031,29.1719 Z " fill="#000000"/><text fill="#000000" font-family="sans-serif" font-size="12" lengthAdjust="spacing" textLength="33" x="45.9" y="27.1543">Fruta</text><line style="stroke:#A80036;stroke-width:1.5;" x1="8" x2="89" y1="39" y2="39"/><text fill="#000000" font-family="sans-serif" font-size="11" lengthAdjust="spacing" textLength="61" x="13" y="53.2104">int tamaño</text><line style="stroke:#A80036;stroke-width:1.5;" x1="8" x2="89" y1="59.8047" y2="59.8047"/><text fill="#000000" font-family="sans-serif" font-size="11" lengthAdjust="spacing" textLength="71" x="13" y="74.0151">void comer()</text><!--MD5=[bb464e4caa4f7f005857ca9509a61a47]
class Manzana--><rect codeLine="6" fill="#FEFECE" filter="url(#f1h551fk1i670u)" height="48" id="Manzana" style="stroke:#A80036;stroke-width:1.5;" width="87" x="125" y="20"/><ellipse cx="140" cy="36" fill="#ADD1B2" rx="11" ry="11" style="stroke:#A80036;stroke-width:1.0;"/><path d="M140.2031,42.1719 C141.25,42.1719 142.2656,41.9844 143.25,41.5938 L142.8594,39.5781 C142.0781,39.9063 141.3125,40.0781 140.4844,40.0781 C138.0938,40.0781 136.875,38.7188 136.875,36 C136.875,33.5469 138.125,32.1406 140.0313,32.1406 C140.9219,32.1406 141.7344,32.5 142.2188,33.1094 L143.4531,31.5 C142.8281,30.5625 141.5781,30.0469 140.0156,30.0469 C136.5469,30.0469 134.5781,32.25 134.5781,36.0938 C134.5781,40.1406 136.4688,42.1719 140.2031,42.1719 Z " fill="#000000"/><text fill="#000000" font-family="sans-serif" font-size="12" lengthAdjust="spacing" textLength="55" x="154" y="40.1543">Manzana</text><line style="stroke:#A80036;stroke-width:1.5;" x1="126" x2="211" y1="52" y2="52"/><line style="stroke:#A80036;stroke-width:1.5;" x1="126" x2="211" y1="60" y2="60"/><!--MD5=[1508bf63183502ad5201ded5f8c5cf37]
class Pera--><rect codeLine="7" fill="#FEFECE" filter="url(#f1h551fk1i670u)" height="48" id="Pera" style="stroke:#A80036;stroke-width:1.5;" width="61" x="18" y="141"/><ellipse cx="33" cy="157" fill="#ADD1B2" rx="11" ry="11" style="stroke:#A80036;stroke-width:1.0;"/><path d="M33.2031,163.1719 C34.25,163.1719 35.2656,162.9844 36.25,162.5938 L35.8594,160.5781 C35.0781,160.9063 34.3125,161.0781 33.4844,161.0781 C31.0938,161.0781 29.875,159.7188 29.875,157 C29.875,154.5469 31.125,153.1406 33.0313,153.1406 C33.9219,153.1406 34.7344,153.5 35.2188,154.1094 L36.4531,152.5 C35.8281,151.5625 34.5781,151.0469 33.0156,151.0469 C29.5469,151.0469 27.5781,153.25 27.5781,157.0938 C27.5781,161.1406 29.4688,163.1719 33.2031,163.1719 Z " fill="#000000"/><text fill="#000000" font-family="sans-serif" font-size="12" lengthAdjust="spacing" textLength="29" x="47" y="161.1543">Pera</text><line style="stroke:#A80036;stroke-width:1.5;" x1="19" x2="78" y1="173" y2="173"/><line style="stroke:#A80036;stroke-width:1.5;" x1="19" x2="78" y1="181" y2="181"/><!--MD5=[4b43efe331bf2fb823de145f3146a02f]
link Fruta to Manzana--><!--MD5=[98a69daa6fc6630c26df619c3a7072fa]
link Fruta to Pera--><!--MD5=[e295858d39aaac8232fc18619ad4a308]
@startuml
class Fruta {
    int tamaño
    void comer()
}

class Manzana
class Pera
@enduml

PlantUML version 1.2021.00(Sun Jan 10 11:25:05 CET 2021)
(LGPL source distribution)
Java Runtime: OpenJDK Runtime Environment
JVM: OpenJDK 64-Bit Server VM
Default Encoding: UTF-8
Language: es
Country: ES
--></g></svg>