<?xml version="1.0" encoding="UTF-8" standalone="no"?><svg xmlns="http://www.w3.org/2000/svg" xmlns:xlink="http://www.w3.org/1999/xlink" contentScriptType="application/ecmascript" contentStyleType="text/css" height="421px" preserveAspectRatio="none" style="width:450px;height:421px;" version="1.1" viewBox="0 0 450 421" width="450px" zoomAndPan="magnify"><defs><filter height="300%" id="f1g29ad0pdiwiv" width="300%" x="-1" y="-1"><feGaussianBlur result="blurOut" stdDeviation="2.0"/><feColorMatrix in="blurOut" result="blurOut2" type="matrix" values="0 0 0 0 0 0 0 0 0 0 0 0 0 0 0 0 0 0 .4 0"/><feOffset dx="4.0" dy="4.0" in="blurOut2" result="blurOut3"/><feBlend in="SourceGraphic" in2="blurOut3" mode="normal"/></filter></defs><g><!--MD5=[b24ed8d4ae84bae9290d9aab401637c7]
class Manager--><rect codeLine="1" fill="#FEFECE" filter="url(#f1g29ad0pdiwiv)" height="32" id="Manager" style="stroke:#A80036;stroke-width:1.5;" width="87" x="163.5" y="191"/><ellipse cx="178.5" cy="207" fill="#A9DCDF" rx="11" ry="11" style="stroke:#A80036;stroke-width:1.0;"/><path d="M173.7344,212.25 L176.0938,212.25 L176.6719,210.0156 L180.2813,210.0156 L180.8594,212.25 L183.2344,212.25 L179.8281,200.4688 L177.1406,200.4688 L173.7344,212.25 Z M177.2031,207.9844 L178.4063,203.3438 L178.5625,203.3438 L179.7656,207.9844 L177.2031,207.9844 Z " fill="#000000"/><text fill="#000000" font-family="sans-serif" font-size="12" font-style="italic" lengthAdjust="spacing" textLength="55" x="192.5" y="211.1543">Manager</text><!--MD5=[4e13963c9dc916a21a8436ef39422b32]
class Component--><rect codeLine="2" fill="#FEFECE" filter="url(#f1g29ad0pdiwiv)" height="32" id="Component" style="stroke:#A80036;stroke-width:1.5;" width="104" x="7" y="283"/><ellipse cx="22" cy="299" fill="#A9DCDF" rx="11" ry="11" style="stroke:#A80036;stroke-width:1.0;"/><path d="M17.2344,304.25 L19.5938,304.25 L20.1719,302.0156 L23.7813,302.0156 L24.3594,304.25 L26.7344,304.25 L23.3281,292.4688 L20.6406,292.4688 L17.2344,304.25 Z M20.7031,299.9844 L21.9063,295.3438 L22.0625,295.3438 L23.2656,299.9844 L20.7031,299.9844 Z " fill="#000000"/><text fill="#000000" font-family="sans-serif" font-size="12" font-style="italic" lengthAdjust="spacing" textLength="72" x="36" y="303.1543">Component</text><!--MD5=[84ad90da8a72978c983c597bd934c6f7]
class PhysicsManager--><rect fill="#FEFECE" filter="url(#f1g29ad0pdiwiv)" height="32" id="PhysicsManager" style="stroke:#A80036;stroke-width:1.5;" width="133" x="303.5" y="283"/><ellipse cx="318.5" cy="299" fill="#ADD1B2" rx="11" ry="11" style="stroke:#A80036;stroke-width:1.0;"/><path d="M318.7031,305.1719 C319.75,305.1719 320.7656,304.9844 321.75,304.5938 L321.3594,302.5781 C320.5781,302.9063 319.8125,303.0781 318.9844,303.0781 C316.5938,303.0781 315.375,301.7188 315.375,299 C315.375,296.5469 316.625,295.1406 318.5313,295.1406 C319.4219,295.1406 320.2344,295.5 320.7188,296.1094 L321.9531,294.5 C321.3281,293.5625 320.0781,293.0469 318.5156,293.0469 C315.0469,293.0469 313.0781,295.25 313.0781,299.0938 C313.0781,303.1406 314.9688,305.1719 318.7031,305.1719 Z " fill="#000000"/><text fill="#000000" font-family="sans-serif" font-size="12" lengthAdjust="spacing" textLength="101" x="332.5" y="303.1543">PhysicsManager</text><!--MD5=[347a6de240a7e533fe3f585d0ed7a7fe]
class AudioManager--><rect fill="#FEFECE" filter="url(#f1g29ad0pdiwiv)" height="32" id="AudioManager" style="stroke:#A80036;stroke-width:1.5;" width="122" x="146" y="283"/><ellipse cx="161" cy="299" fill="#ADD1B2" rx="11" ry="11" style="stroke:#A80036;stroke-width:1.0;"/><path d="M161.2031,305.1719 C162.25,305.1719 163.2656,304.9844 164.25,304.5938 L163.8594,302.5781 C163.0781,302.9063 162.3125,303.0781 161.4844,303.0781 C159.0938,303.0781 157.875,301.7188 157.875,299 C157.875,296.5469 159.125,295.1406 161.0313,295.1406 C161.9219,295.1406 162.7344,295.5 163.2188,296.1094 L164.4531,294.5 C163.8281,293.5625 162.5781,293.0469 161.0156,293.0469 C157.5469,293.0469 155.5781,295.25 155.5781,299.0938 C155.5781,303.1406 157.4688,305.1719 161.2031,305.1719 Z " fill="#000000"/><text fill="#000000" font-family="sans-serif" font-size="12" lengthAdjust="spacing" textLength="90" x="175" y="303.1543">AudioManager</text><!--MD5=[b6dcce5e5ef3c84b0b048d11301373dd]
class Game--><rect fill="#FEFECE" filter="url(#f1g29ad0pdiwiv)" height="32" id="Game" style="stroke:#A80036;stroke-width:1.5;" width="68" x="98" y="7"/><ellipse cx="113" cy="23" fill="#ADD1B2" rx="11" ry="11" style="stroke:#A80036;stroke-width:1.0;"/><path d="M113.2031,29.1719 C114.25,29.1719 115.2656,28.9844 116.25,28.5938 L115.8594,26.5781 C115.0781,26.9063 114.3125,27.0781 113.4844,27.0781 C111.0938,27.0781 109.875,25.7188 109.875,23 C109.875,20.5469 111.125,19.1406 113.0313,19.1406 C113.9219,19.1406 114.7344,19.5 115.2188,20.1094 L116.4531,18.5 C115.8281,17.5625 114.5781,17.0469 113.0156,17.0469 C109.5469,17.0469 107.5781,19.25 107.5781,23.0938 C107.5781,27.1406 109.4688,29.1719 113.2031,29.1719 Z " fill="#000000"/><text fill="#000000" font-family="sans-serif" font-size="12" lengthAdjust="spacing" textLength="36" x="127" y="27.1543">Game</text><!--MD5=[3618a374bd976662547feba7b42f282d]
class Scenario--><rect fill="#FEFECE" filter="url(#f1g29ad0pdiwiv)" height="32" id="Scenario" style="stroke:#A80036;stroke-width:1.5;" width="87" x="40.5" y="99"/><ellipse cx="55.5" cy="115" fill="#ADD1B2" rx="11" ry="11" style="stroke:#A80036;stroke-width:1.0;"/><path d="M55.7031,121.1719 C56.75,121.1719 57.7656,120.9844 58.75,120.5938 L58.3594,118.5781 C57.5781,118.9063 56.8125,119.0781 55.9844,119.0781 C53.5938,119.0781 52.375,117.7188 52.375,115 C52.375,112.5469 53.625,111.1406 55.5313,111.1406 C56.4219,111.1406 57.2344,111.5 57.7188,112.1094 L58.9531,110.5 C58.3281,109.5625 57.0781,109.0469 55.5156,109.0469 C52.0469,109.0469 50.0781,111.25 50.0781,115.0938 C50.0781,119.1406 51.9688,121.1719 55.7031,121.1719 Z " fill="#000000"/><text fill="#000000" font-family="sans-serif" font-size="12" lengthAdjust="spacing" textLength="55" x="69.5" y="119.1543">Scenario</text><!--MD5=[be996cdb8e6bf2fc7cb89c555f2cd144]
class Entity--><rect fill="#FEFECE" filter="url(#f1g29ad0pdiwiv)" height="32" id="Entity" style="stroke:#A80036;stroke-width:1.5;" width="67" x="43.5" y="191"/><ellipse cx="58.5" cy="207" fill="#ADD1B2" rx="11" ry="11" style="stroke:#A80036;stroke-width:1.0;"/><path d="M58.7031,213.1719 C59.75,213.1719 60.7656,212.9844 61.75,212.5938 L61.3594,210.5781 C60.5781,210.9063 59.8125,211.0781 58.9844,211.0781 C56.5938,211.0781 55.375,209.7188 55.375,207 C55.375,204.5469 56.625,203.1406 58.5313,203.1406 C59.4219,203.1406 60.2344,203.5 60.7188,204.1094 L61.9531,202.5 C61.3281,201.5625 60.0781,201.0469 58.5156,201.0469 C55.0469,201.0469 53.0781,203.25 53.0781,207.0938 C53.0781,211.1406 54.9688,213.1719 58.7031,213.1719 Z " fill="#000000"/><text fill="#000000" font-family="sans-serif" font-size="12" lengthAdjust="spacing" textLength="35" x="72.5" y="211.1543">Entity</text><!--MD5=[bbcd2da526b70b90dae59809b1d6ce91]
class PhysicsComponent--><rect fill="#FEFECE" filter="url(#f1g29ad0pdiwiv)" height="32" id="PhysicsComponent" style="stroke:#A80036;stroke-width:1.5;" width="150" x="262" y="375"/><ellipse cx="277" cy="391" fill="#ADD1B2" rx="11" ry="11" style="stroke:#A80036;stroke-width:1.0;"/><path d="M277.2031,397.1719 C278.25,397.1719 279.2656,396.9844 280.25,396.5938 L279.8594,394.5781 C279.0781,394.9063 278.3125,395.0781 277.4844,395.0781 C275.0938,395.0781 273.875,393.7188 273.875,391 C273.875,388.5469 275.125,387.1406 277.0313,387.1406 C277.9219,387.1406 278.7344,387.5 279.2188,388.1094 L280.4531,386.5 C279.8281,385.5625 278.5781,385.0469 277.0156,385.0469 C273.5469,385.0469 271.5781,387.25 271.5781,391.0938 C271.5781,395.1406 273.4688,397.1719 277.2031,397.1719 Z " fill="#000000"/><text fill="#000000" font-family="sans-serif" font-size="12" lengthAdjust="spacing" textLength="118" x="291" y="395.1543">PhysicsComponent</text><!--MD5=[a187f55a710015c4da85db0794286a31]
class AudioComponent--><rect fill="#FEFECE" filter="url(#f1g29ad0pdiwiv)" height="32" id="AudioComponent" style="stroke:#A80036;stroke-width:1.5;" width="139" x="54.5" y="375"/><ellipse cx="69.5" cy="391" fill="#ADD1B2" rx="11" ry="11" style="stroke:#A80036;stroke-width:1.0;"/><path d="M69.7031,397.1719 C70.75,397.1719 71.7656,396.9844 72.75,396.5938 L72.3594,394.5781 C71.5781,394.9063 70.8125,395.0781 69.9844,395.0781 C67.5938,395.0781 66.375,393.7188 66.375,391 C66.375,388.5469 67.625,387.1406 69.5313,387.1406 C70.4219,387.1406 71.2344,387.5 71.7188,388.1094 L72.9531,386.5 C72.3281,385.5625 71.0781,385.0469 69.5156,385.0469 C66.0469,385.0469 64.0781,387.25 64.0781,391.0938 C64.0781,395.1406 65.9688,397.1719 69.7031,397.1719 Z " fill="#000000"/><text fill="#000000" font-family="sans-serif" font-size="12" lengthAdjust="spacing" textLength="107" x="83.5" y="395.1543">AudioComponent</text><!--MD5=[6fdb646c2e1421a83d3e5db06014fdc5]
reverse link Manager to PhysicsManager--><path codeLine="3" d="M252.04,232.87 C281.09,248.91 317.92,269.24 342.63,282.89 " fill="none" id="Manager-backto-PhysicsManager" style="stroke:#A80036;stroke-width:1.0;"/><polygon fill="none" points="248.41,238.86,234.28,223.06,255.17,226.6,248.41,238.86" style="stroke:#A80036;stroke-width:1.0;"/><!--MD5=[5099b3acf022badf43e55e67dd6d2c10]
reverse link Manager to AudioManager--><path codeLine="4" d="M207,243.61 C207,257.31 207,272.22 207,282.96 " fill="none" id="Manager-backto-AudioManager" style="stroke:#A80036;stroke-width:1.0;"/><polygon fill="none" points="200,243.27,207,223.27,214,243.27,200,243.27" style="stroke:#A80036;stroke-width:1.0;"/><!--MD5=[f28bbcf03f541345c0ac0ba9d578a966]
reverse link Game to Manager--><path codeLine="5" d="M143.26,51.33 C159.3,90.26 188.18,160.32 200.81,190.97 " fill="none" id="Game-backto-Manager" style="stroke:#A80036;stroke-width:1.0;"/><polygon fill="#A80036" points="138.27,39.2,136.8579,46.2715,142.8423,50.2948,144.2544,43.2233,138.27,39.2" style="stroke:#A80036;stroke-width:1.0;"/><text fill="#000000" font-family="sans-serif" font-size="13" lengthAdjust="spacing" textLength="8" x="131.0219" y="59.1395">1</text><text fill="#000000" font-family="sans-serif" font-size="13" lengthAdjust="spacing" textLength="7" x="190.4791" y="179.9713">*</text><!--MD5=[918c0fffe07024551ce11cc4b640af71]
reverse link Game to Scenario--><path codeLine="6" d="M117.64,50.93 C109.25,66.65 98.99,85.89 92.02,98.96 " fill="none" id="Game-backto-Scenario" style="stroke:#A80036;stroke-width:1.0;"/><polygon fill="#A80036" points="123.86,39.27,117.5062,42.6801,118.2102,49.8568,124.564,46.4467,123.86,39.27" style="stroke:#A80036;stroke-width:1.0;"/><!--MD5=[2a51148274640ba548856dd26771aee1]
reverse link Scenario to Entity--><path codeLine="7" d="M81.8,144.34 C80.59,159.79 79.16,178.28 78.17,190.96 " fill="none" id="Scenario-backto-Entity" style="stroke:#A80036;stroke-width:1.0;"/><polygon fill="#A80036" points="82.81,131.27,78.3602,136.9444,81.8866,143.2344,86.3364,137.56,82.81,131.27" style="stroke:#A80036;stroke-width:1.0;"/><text fill="#000000" font-family="sans-serif" font-size="13" lengthAdjust="spacing" textLength="8" x="73.1557" y="150.9347">1</text><text fill="#000000" font-family="sans-serif" font-size="13" lengthAdjust="spacing" textLength="36" x="36.3847" y="179.9578">many</text><!--MD5=[02aabbcdf2913bdf78d2840a740aa5c1]
reverse link Entity to Component--><path codeLine="8" d="M71.33,236.34 C68.24,251.79 64.54,270.28 62.01,282.96 " fill="none" id="Entity-backto-Component" style="stroke:#A80036;stroke-width:1.0;"/><polygon fill="#A80036" points="73.95,223.27,68.8477,228.3657,71.589,235.0354,76.6913,229.9397,73.95,223.27" style="stroke:#A80036;stroke-width:1.0;"/><text fill="#000000" font-family="sans-serif" font-size="13" lengthAdjust="spacing" textLength="8" x="63.7028" y="242.9347">1</text><text fill="#000000" font-family="sans-serif" font-size="13" lengthAdjust="spacing" textLength="36" x="20.8572" y="271.9578">many</text><!--MD5=[96cb58b9e4876c634ed6fb1a74c7b251]
reverse link Component to PhysicsComponent--><path codeLine="9" d="M124.74,321.28 C175.67,337.77 244.96,360.2 290.32,374.89 " fill="none" id="Component-backto-PhysicsComponent" style="stroke:#A80036;stroke-width:1.0;"/><polygon fill="none" points="122.4,327.88,105.53,315.06,126.71,314.56,122.4,327.88" style="stroke:#A80036;stroke-width:1.0;"/><!--MD5=[acdbaadc89fe3efbcfbceecf21c9e3c5]
reverse link Component to AudioComponent--><path codeLine="10" d="M81.89,331.69 C92.51,346.4 104.63,363.18 113.14,374.96 " fill="none" id="Component-backto-AudioComponent" style="stroke:#A80036;stroke-width:1.0;"/><polygon fill="none" points="76.06,335.58,70.03,315.27,87.41,327.38,76.06,335.58" style="stroke:#A80036;stroke-width:1.0;"/><!--MD5=[f6064ae34f2c1d1c9e915ffd1489f176]
link PhysicsManager to PhysicsComponent--><path codeLine="11" d="M364.4,315.27 C358.87,330.36 350.38,353.52 344.31,370.06 " fill="none" id="PhysicsManager-to-PhysicsComponent" style="stroke:#A80036;stroke-width:1.0;"/><polygon fill="#A80036" points="342.52,374.96,349.3807,367.8939,344.2459,370.2673,341.8724,365.1325,342.52,374.96" style="stroke:#A80036;stroke-width:1.0;"/><!--MD5=[20b682cadc58cf6125ea69912e74c11a]
link AudioManager to AudioComponent--><path codeLine="12" d="M192.92,315.27 C178.76,330.62 156.9,354.32 141.61,370.9 " fill="none" id="AudioManager-to-AudioComponent" style="stroke:#A80036;stroke-width:1.0;"/><polygon fill="#A80036" points="137.87,374.96,146.9118,371.0555,141.2596,371.2843,141.0308,365.6321,137.87,374.96" style="stroke:#A80036;stroke-width:1.0;"/><!--MD5=[412a6c0982add06817118fb61920a204]
@startuml
abstract Manager
abstract Component
Manager <|- - PhysicsManager
Manager <|- - AudioManager
Game "1" *- - "*" Manager
Game *- - Scenario
Scenario "1" *- - "many" Entity
Entity "1" *- - "many" Component
Component <|- - PhysicsComponent
Component <|- - AudioComponent
PhysicsManager - -> PhysicsComponent
AudioManager - -> AudioComponent
hide members
@enduml

PlantUML version 1.2021.00(Sun Jan 10 11:25:05 CET 2021)
(LGPL source distribution)
Java Runtime: OpenJDK Runtime Environment
JVM: OpenJDK 64-Bit Server VM
Default Encoding: UTF-8
Language: es
Country: ES
--></g></svg>