<?xml version="1.0" encoding="UTF-8" standalone="no"?><svg xmlns="http://www.w3.org/2000/svg" xmlns:xlink="http://www.w3.org/1999/xlink" contentScriptType="application/ecmascript" contentStyleType="text/css" height="441px" preserveAspectRatio="none" style="width:239px;height:441px;" version="1.1" viewBox="0 0 239 441" width="239px" zoomAndPan="magnify"><defs><filter height="300%" id="f1szxrufhimpxy" width="300%" x="-1" y="-1"><feGaussianBlur result="blurOut" stdDeviation="2.0"/><feColorMatrix in="blurOut" result="blurOut2" type="matrix" values="0 0 0 0 0 0 0 0 0 0 0 0 0 0 0 0 0 0 .4 0"/><feOffset dx="4.0" dy="4.0" in="blurOut2" result="blurOut3"/><feBlend in="SourceGraphic" in2="blurOut3" mode="normal"/></filter></defs><g><!--MD5=[be996cdb8e6bf2fc7cb89c555f2cd144]
class Entity--><rect codeLine="1" fill="#FEFECE" filter="url(#f1szxrufhimpxy)" height="32" id="Entity" style="stroke:#A80036;stroke-width:1.5;" width="68" x="157" y="100"/><ellipse cx="172" cy="116" fill="#A9DCDF" rx="11" ry="11" style="stroke:#A80036;stroke-width:1.0;"/><path d="M167.2344,121.25 L169.5938,121.25 L170.1719,119.0156 L173.7813,119.0156 L174.3594,121.25 L176.7344,121.25 L173.3281,109.4688 L170.6406,109.4688 L167.2344,121.25 Z M170.7031,116.9844 L171.9063,112.3438 L172.0625,112.3438 L173.2656,116.9844 L170.7031,116.9844 Z " fill="#000000"/><text fill="#000000" font-family="sans-serif" font-size="12" font-style="italic" lengthAdjust="spacing" textLength="36" x="186" y="120.1543">Entity</text><!--MD5=[cbc984a6a6086109243884c87806a70e]
class Movable--><rect codeLine="4" fill="#FEFECE" filter="url(#f1szxrufhimpxy)" height="32" id="Movable" style="stroke:#A80036;stroke-width:1.5;" width="83" x="102.5" y="193"/><ellipse cx="117.5" cy="209" fill="#A9DCDF" rx="11" ry="11" style="stroke:#A80036;stroke-width:1.0;"/><path d="M112.7344,214.25 L115.0938,214.25 L115.6719,212.0156 L119.2813,212.0156 L119.8594,214.25 L122.2344,214.25 L118.8281,202.4688 L116.1406,202.4688 L112.7344,214.25 Z M116.2031,209.9844 L117.4063,205.3438 L117.5625,205.3438 L118.7656,209.9844 L116.2031,209.9844 Z " fill="#000000"/><text fill="#000000" font-family="sans-serif" font-size="12" font-style="italic" lengthAdjust="spacing" textLength="51" x="131.5" y="213.1543">Movable</text><!--MD5=[a3f6aaa3f93db2c29fed664e0312b4de]
class Weapon--><rect fill="#FEFECE" filter="url(#f1szxrufhimpxy)" height="32" id="Weapon" style="stroke:#A80036;stroke-width:1.5;" width="83" x="99.5" y="395"/><ellipse cx="114.5" cy="411" fill="#ADD1B2" rx="11" ry="11" style="stroke:#A80036;stroke-width:1.0;"/><path d="M114.7031,417.1719 C115.75,417.1719 116.7656,416.9844 117.75,416.5938 L117.3594,414.5781 C116.5781,414.9063 115.8125,415.0781 114.9844,415.0781 C112.5938,415.0781 111.375,413.7188 111.375,411 C111.375,408.5469 112.625,407.1406 114.5313,407.1406 C115.4219,407.1406 116.2344,407.5 116.7188,408.1094 L117.9531,406.5 C117.3281,405.5625 116.0781,405.0469 114.5156,405.0469 C111.0469,405.0469 109.0781,407.25 109.0781,411.0938 C109.0781,415.1406 110.9688,417.1719 114.7031,417.1719 Z " fill="#000000"/><text fill="#000000" font-family="sans-serif" font-size="12" lengthAdjust="spacing" textLength="51" x="128.5" y="415.1543">Weapon</text><!--MD5=[2cb47ba637a0d19583e6199456f6ad0b]
class Player--><rect fill="#FEFECE" filter="url(#f1szxrufhimpxy)" height="32" id="Player" style="stroke:#A80036;stroke-width:1.5;" width="70" x="7" y="286"/><ellipse cx="22" cy="302" fill="#ADD1B2" rx="11" ry="11" style="stroke:#A80036;stroke-width:1.0;"/><path d="M22.2031,308.1719 C23.25,308.1719 24.2656,307.9844 25.25,307.5938 L24.8594,305.5781 C24.0781,305.9063 23.3125,306.0781 22.4844,306.0781 C20.0938,306.0781 18.875,304.7188 18.875,302 C18.875,299.5469 20.125,298.1406 22.0313,298.1406 C22.9219,298.1406 23.7344,298.5 24.2188,299.1094 L25.4531,297.5 C24.8281,296.5625 23.5781,296.0469 22.0156,296.0469 C18.5469,296.0469 16.5781,298.25 16.5781,302.0938 C16.5781,306.1406 18.4688,308.1719 22.2031,308.1719 Z " fill="#000000"/><text fill="#000000" font-family="sans-serif" font-size="12" lengthAdjust="spacing" textLength="38" x="36" y="306.1543">Player</text><!--MD5=[80c532e980642ebbe770e7ed91e479d0]
class Enemy--><rect fill="#FEFECE" filter="url(#f1szxrufhimpxy)" height="32" id="Enemy" style="stroke:#A80036;stroke-width:1.5;" width="73" x="112.5" y="286"/><ellipse cx="127.5" cy="302" fill="#ADD1B2" rx="11" ry="11" style="stroke:#A80036;stroke-width:1.0;"/><path d="M127.7031,308.1719 C128.75,308.1719 129.7656,307.9844 130.75,307.5938 L130.3594,305.5781 C129.5781,305.9063 128.8125,306.0781 127.9844,306.0781 C125.5938,306.0781 124.375,304.7188 124.375,302 C124.375,299.5469 125.625,298.1406 127.5313,298.1406 C128.4219,298.1406 129.2344,298.5 129.7188,299.1094 L130.9531,297.5 C130.3281,296.5625 129.0781,296.0469 127.5156,296.0469 C124.0469,296.0469 122.0781,298.25 122.0781,302.0938 C122.0781,306.1406 123.9688,308.1719 127.7031,308.1719 Z " fill="#000000"/><text fill="#000000" font-family="sans-serif" font-size="12" lengthAdjust="spacing" textLength="41" x="141.5" y="306.1543">Enemy</text><!--MD5=[b6dcce5e5ef3c84b0b048d11301373dd]
class Game--><rect fill="#FEFECE" filter="url(#f1szxrufhimpxy)" height="32" id="Game" style="stroke:#A80036;stroke-width:1.5;" width="68" x="157" y="7"/><ellipse cx="172" cy="23" fill="#ADD1B2" rx="11" ry="11" style="stroke:#A80036;stroke-width:1.0;"/><path d="M172.2031,29.1719 C173.25,29.1719 174.2656,28.9844 175.25,28.5938 L174.8594,26.5781 C174.0781,26.9063 173.3125,27.0781 172.4844,27.0781 C170.0938,27.0781 168.875,25.7188 168.875,23 C168.875,20.5469 170.125,19.1406 172.0313,19.1406 C172.9219,19.1406 173.7344,19.5 174.2188,20.1094 L175.4531,18.5 C174.8281,17.5625 173.5781,17.0469 172.0156,17.0469 C168.5469,17.0469 166.5781,19.25 166.5781,23.0938 C166.5781,27.1406 168.4688,29.1719 172.2031,29.1719 Z " fill="#000000"/><text fill="#000000" font-family="sans-serif" font-size="12" lengthAdjust="spacing" textLength="36" x="186" y="27.1543">Game</text><!--MD5=[5b8eaa92dd224dc8459d82dba34df021]
reverse link Entity to Movable--><path codeLine="2" d="M173.84,150.23 C166.27,164.88 157.76,181.35 151.77,192.95 " fill="none" id="Entity-backto-Movable" style="stroke:#A80036;stroke-width:1.0;"/><polygon fill="none" points="167.84,146.58,183.24,132.03,180.28,153.01,167.84,146.58" style="stroke:#A80036;stroke-width:1.0;"/><!--MD5=[300da2fe99e4914b4992e804e9d0d3f0]
reverse link Entity to Weapon--><path codeLine="3" d="M198.12,151.78 C205.22,192.1 213.65,260.41 203,318 C198.93,340 197.07,346.17 185,365 C177.92,376.04 167.81,386.62 159.07,394.74 " fill="none" id="Entity-backto-Weapon" style="stroke:#A80036;stroke-width:1.0;"/><polygon fill="none" points="191.23,152.99,194.35,132.03,204.98,150.36,191.23,152.99" style="stroke:#A80036;stroke-width:1.0;"/><!--MD5=[0d3e104d7390475960bc62328d0674df]
reverse link Movable to Player--><path codeLine="5" d="M111.99,238.56 C94.39,254.26 73.27,273.1 58.87,285.95 " fill="none" id="Movable-backto-Player" style="stroke:#A80036;stroke-width:1.0;"/><polygon fill="none" points="107.57,233.12,127.16,225.03,116.89,243.56,107.57,233.12" style="stroke:#A80036;stroke-width:1.0;"/><!--MD5=[f1170e3d143e45171632921bd569d22f]
reverse link Movable to Enemy--><path codeLine="6" d="M145.94,245.24 C146.71,259.36 147.56,274.88 148.17,285.95 " fill="none" id="Movable-backto-Enemy" style="stroke:#A80036;stroke-width:1.0;"/><polygon fill="none" points="138.93,245.38,144.83,225.03,152.91,244.61,138.93,245.38" style="stroke:#A80036;stroke-width:1.0;"/><!--MD5=[2b0b617a678a2c83a9e5887370cc3260]
reverse link Game to Entity--><path codeLine="7" d="M191,52.32 C191,68.07 191,87.03 191,99.95 " fill="none" id="Game-backto-Entity" style="stroke:#A80036;stroke-width:1.0;"/><polygon fill="#A80036" points="191,39.03,187,45.03,191,51.03,195,45.03,191,39.03" style="stroke:#A80036;stroke-width:1.0;"/><text fill="#000000" font-family="sans-serif" font-size="13" lengthAdjust="spacing" textLength="8" x="181.625" y="59.2082">1</text><text fill="#000000" font-family="sans-serif" font-size="13" lengthAdjust="spacing" textLength="7" x="182.7969" y="88.9444">*</text><!--MD5=[f3b7441d4b787aceaa79f5a5a1e544f9]
reverse link Player to Weapon--><path codeLine="8" d="M65.15,328.02 C84.26,348.67 110.75,377.31 126.84,394.7 " fill="none" id="Player-backto-Weapon" style="stroke:#A80036;stroke-width:1.0;"/><polygon fill="#FFFFFF" points="56.18,318.33,57.3184,325.4507,64.3292,327.1385,63.1908,320.0179,56.18,318.33" style="stroke:#A80036;stroke-width:1.0;"/><text fill="#000000" font-family="sans-serif" font-size="13" lengthAdjust="spacing" textLength="77" x="99" y="361.0669">aggregation</text><!--MD5=[3aed1a00c137d40329af7817fa662882]
@startuml
abstract Entity
Entity <|- - Movable
Entity <|- - Weapon
abstract Movable
Movable <|- - Player
Movable <|- - Enemy
Game "1" *- - "*" Entity
Player o- - Weapon : aggregation
hide members
@enduml

PlantUML version 1.2021.00(Sun Jan 10 11:25:05 CET 2021)
(LGPL source distribution)
Java Runtime: OpenJDK Runtime Environment
JVM: OpenJDK 64-Bit Server VM
Default Encoding: UTF-8
Language: es
Country: ES
--></g></svg>