<?xml version="1.0" encoding="UTF-8" standalone="no"?>
<!DOCTYPE svg PUBLIC "-//W3C//DTD SVG 1.1//EN"
 "http://www.w3.org/Graphics/SVG/1.1/DTD/svg11.dtd">
<!-- Generated by graphviz version 2.48.0 (0)
 -->
<!-- Pages: 1 -->
<svg width="406pt" height="116pt"
 viewBox="0.00 0.00 405.89 116.00" xmlns="http://www.w3.org/2000/svg" xmlns:xlink="http://www.w3.org/1999/xlink">
<g id="graph0" class="graph" transform="scale(1 1) rotate(0) translate(4 112)">
<!-- processor -->
<g id="node1" class="node">
<title>processor</title>
<polygon fill="none" stroke="black" points="397.89,-36 301.89,-36 301.89,0 397.89,0 397.89,-36"/>
<text text-anchor="middle" x="349.89" y="-14.3" font-family="Times,serif" font-size="14.00">procesador</text>
</g>
<!-- vm -->
<g id="node2" class="node">
<title>vm</title>
<polygon fill="none" stroke="black" points="394.39,-108 305.39,-108 305.39,-72 394.39,-72 394.39,-108"/>
<text text-anchor="middle" x="349.89" y="-86.3" font-family="Times,serif" font-size="14.00">intérprete</text>
</g>
<!-- vm&#45;&gt;processor -->
<g id="edge2" class="edge">
<title>vm&#45;&gt;processor</title>
<path fill="none" stroke="black" d="M349.89,-71.59C349.89,-63.94 349.89,-54.89 349.89,-46.43"/>
<polygon fill="black" stroke="black" points="353.39,-46.17 349.89,-36.17 346.39,-46.17 353.39,-46.17"/>
<text text-anchor="middle" x="339.39" y="-50.3" font-family="Times,serif" font-size="14.00">ejecuta programa en</text>
</g>
<!-- source -->
<g id="node3" class="node">
<title>source</title>
<ellipse fill="none" stroke="black" cx="73.44" cy="-90" rx="73.39" ry="18"/>
<text text-anchor="middle" x="73.44" y="-86.3" font-family="Times,serif" font-size="14.00">código fuente</text>
</g>
<!-- source&#45;&gt;vm -->
<g id="edge1" class="edge">
<title>source&#45;&gt;vm</title>
<path fill="none" stroke="black" d="M146.91,-90C193.42,-90 252.8,-90 295.12,-90"/>
<polygon fill="black" stroke="black" points="295.22,-93.5 305.22,-90 295.22,-86.5 295.22,-93.5"/>
<text text-anchor="middle" x="224.39" y="-93.8" font-family="Times,serif" font-size="14.00">interpretado por</text>
</g>
</g>
</svg>
